<svg width="41" height="29" viewBox="0 0 41 29" fill="none" xmlns="http://www.w3.org/2000/svg">
<path fill-rule="evenodd" clip-rule="evenodd" d="M25.7205 16.2738L35.051 25.2619H5.91385L15.2743 16.2886L17.7296 18.4762C19.2905 19.8676 21.7038 19.87 23.2653 18.4762L25.7205 16.2738ZM37.6253 5.63381V23.759L27.8634 14.3543L37.6253 5.63381ZM3.33956 5.63381L13.1315 14.369L3.33956 23.7738V5.63381ZM5.08052 3.35714H35.8991L21.3605 16.3333C20.8062 16.8281 20.1896 16.8286 19.6343 16.3333L5.08052 3.35714ZM4.76814 0.5C2.41861 0.5 0.482422 2.43619 0.482422 4.78571V23.8333C0.482422 26.1829 2.41861 28.119 4.76814 28.119H36.1967C38.5467 28.119 40.4824 26.1829 40.4824 23.8333V4.78571C40.4824 2.43619 38.5467 0.5 36.1967 0.5H4.76814Z" fill="#6D7278"/>
</svg>
