<svg width="49" height="49" viewBox="0 0 49 49" fill="none" xmlns="http://www.w3.org/2000/svg">
<circle cx="24.4824" cy="24.5" r="24" fill="#FF4500"/>
<path fill-rule="evenodd" clip-rule="evenodd" d="M29.4111 24.5C28.5821 24.5 27.9111 25.1647 27.9111 25.985C27.9111 26.8048 28.5821 27.4703 29.4111 27.4703C30.2394 27.4703 30.9111 26.8048 30.9111 25.985C30.9111 25.1647 30.2394 24.5 29.4111 24.5Z" fill="white"/>
<path fill-rule="evenodd" clip-rule="evenodd" d="M34.3833 24.5023C33.9028 23.7575 33.2532 23.0782 32.4695 22.4901C32.7105 21.9874 33.2276 21.6399 33.8252 21.6399C34.6516 21.6399 35.3252 22.3059 35.3252 23.1249C35.3252 23.7477 34.9351 24.2826 34.3833 24.5023ZM24.8252 33.242C20.0097 33.242 16.1065 30.7061 16.1065 27.5802C16.1065 24.4535 20.0097 21.9183 24.8252 21.9183C29.6409 21.9183 33.5441 24.4535 33.5441 27.5802C33.5441 30.7061 29.6409 33.242 24.8252 33.242ZM14.3252 23.1249C14.3252 22.3059 14.9985 21.6399 15.8252 21.6399C16.4231 21.6399 16.9407 21.9874 17.1801 22.4901C16.3972 23.0782 15.7476 23.7575 15.2673 24.5023C14.7148 24.2826 14.3252 23.7477 14.3252 23.1249ZM33.0753 15.6067C33.5412 15.6067 33.9191 15.9799 33.9191 16.442C33.9191 16.9033 33.5412 17.2773 33.0753 17.2773C32.6095 17.2773 32.2316 16.9033 32.2316 16.442C32.2316 15.9799 32.6095 15.6067 33.0753 15.6067ZM33.8252 20.1546C32.6983 20.1546 31.7159 20.771 31.2039 21.6815C29.6615 20.846 27.7828 20.307 25.7364 20.1829L27.5265 16.2023L30.9527 17.1817C31.2612 18.0482 32.0945 18.6696 33.0753 18.6696C34.3183 18.6696 35.3252 17.6721 35.3252 16.442C35.3252 15.2111 34.3183 14.2144 33.0753 14.2144C32.2183 14.2144 31.4735 14.6882 31.0932 15.3862L27.2745 14.2952C26.8481 14.1732 26.3956 14.3815 26.214 14.7832L23.7831 20.1907C21.7871 20.3297 19.9561 20.8647 18.4473 21.6815C17.9353 20.771 16.9524 20.1546 15.8252 20.1546C14.1684 20.1546 12.8252 21.4845 12.8252 23.1249C12.8252 24.3384 13.5612 25.3816 14.6153 25.8421C14.4257 26.3995 14.3252 26.9814 14.3252 27.5802C14.3252 31.6804 19.026 35.0057 24.8252 35.0057C30.6239 35.0057 35.3252 31.6804 35.3252 27.5802C35.3252 26.9814 35.2249 26.3995 35.0353 25.8426C36.0884 25.3816 36.8252 24.3384 36.8252 23.1249C36.8252 21.4845 35.482 20.1546 33.8252 20.1546Z" fill="white"/>
<path fill-rule="evenodd" clip-rule="evenodd" d="M21.9966 25.985C21.9966 25.1644 21.3248 24.5 20.4966 24.5C19.6675 24.5 18.9966 25.1644 18.9966 25.985C18.9966 26.8048 19.6675 27.47 20.4966 27.47C21.3248 27.47 21.9966 26.8048 21.9966 25.985Z" fill="white"/>
<path fill-rule="evenodd" clip-rule="evenodd" d="M27.9556 29.4891C27.3366 29.972 26.1113 30.4922 24.883 30.4922C23.6548 30.4922 22.4294 29.972 21.8105 29.4891C21.4238 29.1879 20.8636 29.2536 20.5596 29.6361C20.2548 30.0184 20.3214 30.5731 20.7068 30.874C21.7833 31.713 23.422 32.2559 24.883 32.2559C26.3436 32.2559 27.9825 31.713 29.0585 30.874C29.4444 30.5731 29.5113 30.0184 29.2073 29.6361C28.9017 29.2536 28.3422 29.1879 27.9556 29.4891Z" fill="white"/>
</svg>
