<svg width="49" height="49" viewBox="0 0 49 49" fill="none" xmlns="http://www.w3.org/2000/svg">
<mask id="mask0_0_1119" style="mask-type:alpha" maskUnits="userSpaceOnUse" x="0" y="0" width="49" height="49">
<path fill-rule="evenodd" clip-rule="evenodd" d="M0.482422 0.5H48.4824V48.5H0.482422V0.5Z" fill="white"/>
</mask>
<g mask="url(#mask0_0_1119)">
<path fill-rule="evenodd" clip-rule="evenodd" d="M48.4824 24.5C48.4824 11.2452 37.7373 0.5 24.4824 0.5C11.2276 0.5 0.482422 11.2452 0.482422 24.5C0.482422 37.7549 11.2276 48.5 24.4824 48.5C37.7373 48.5 48.4824 37.7549 48.4824 24.5Z" fill="#32FC8D"/>
</g>
<path fill-rule="evenodd" clip-rule="evenodd" d="M19.9445 26.547C19.9445 29.4956 19.9464 32.4443 19.9406 35.3929C19.9402 35.6083 19.9426 35.8575 19.8417 36.0318C19.6149 36.4237 19.2842 36.2548 18.9813 36.1033C16.9077 35.0671 14.8345 34.0302 12.7609 32.9939C12.3406 32.7838 11.9253 32.5623 11.4973 32.3694C10.9742 32.1335 10.7615 31.7383 10.7657 31.1747C10.777 29.6064 10.7694 28.0379 10.7694 26.4694C10.7694 22.1877 10.7694 17.9058 10.7698 13.6239C10.7699 13.4672 10.7629 13.309 10.7816 13.1541C10.8206 12.8306 10.9997 12.7203 11.3089 12.8406C11.3234 12.8463 11.3361 12.8563 11.3502 12.8632C14.1246 14.2496 16.9024 15.6293 19.6651 17.039C19.822 17.1189 19.9312 17.4428 19.9327 17.654C19.9507 20.2575 19.9445 22.8612 19.9445 25.4647C19.9445 25.8255 19.9445 26.1862 19.9445 26.547Z" fill="white"/>
<path fill-rule="evenodd" clip-rule="evenodd" d="M29.5085 31.2258C28.9931 30.3886 28.5175 29.6158 28.0418 28.843C26.6118 26.5208 25.1863 24.1959 23.7459 21.8803C23.5822 21.6171 23.583 21.4318 23.7467 21.1681C25.4085 18.4918 27.063 15.811 28.6998 13.1194C28.9456 12.7153 29.1594 12.6218 29.6006 12.8461C32.2964 14.2158 35.0032 15.5633 37.7121 16.9066C38.0373 17.0679 38.1806 17.1999 37.9506 17.572C35.1976 22.0244 32.457 26.4846 29.7123 30.9421C29.664 31.0205 29.6049 31.0923 29.5085 31.2258Z" fill="white"/>
<path fill-rule="evenodd" clip-rule="evenodd" d="M29.7686 32.3362C32.5468 27.8218 35.3152 23.3234 38.0837 18.825L38.176 18.8554C38.1838 19.0046 38.1984 19.1539 38.1985 19.303C38.1996 24.6354 38.1996 29.9676 38.1985 35.3C38.1984 35.472 38.2028 35.6473 38.1735 35.8154C38.1065 36.1978 37.856 36.3386 37.4856 36.217C37.4117 36.1929 37.3424 36.1539 37.2724 36.1188C34.8631 34.9135 32.4542 33.7079 30.0456 32.5013C29.9632 32.4599 29.8866 32.407 29.7686 32.3362Z" fill="white"/>
<path fill-rule="evenodd" clip-rule="evenodd" d="M20.7552 18.488C23.5425 23.017 26.2614 27.4351 29.0433 31.9552C28.821 31.8718 28.7071 31.8401 28.6033 31.7883C26.0957 30.5371 23.5895 29.283 21.082 28.0318C20.8669 27.9245 20.701 27.8353 20.7026 27.5241C20.7186 24.6082 20.7124 21.6924 20.7137 18.7764C20.7138 18.7306 20.7263 18.6846 20.7552 18.488Z" fill="white"/>
</svg>
