<svg width="28" height="28" viewBox="0 0 28 28" fill="none" xmlns="http://www.w3.org/2000/svg">
<circle cx="14" cy="14" r="14" fill="url(#paint0_linear_42_46)"/>
<path d="M19.2992 11.0168C19.3074 11.1316 19.3074 11.2465 19.3074 11.3613C19.3074 14.864 16.6414 18.9 11.7688 18.9C10.2676 18.9 8.87306 18.4652 7.70001 17.7106C7.9133 17.7351 8.11836 17.7434 8.33985 17.7434C9.57851 17.7434 10.7188 17.325 11.6293 16.6113C10.4645 16.5867 9.48829 15.8238 9.15195 14.7738C9.31603 14.7984 9.48008 14.8148 9.65236 14.8148C9.89025 14.8148 10.1282 14.782 10.3496 14.7246C9.13557 14.4785 8.22499 13.4121 8.22499 12.1242V12.0914C8.57771 12.2883 8.9879 12.4113 9.42264 12.4277C8.70896 11.9519 8.2414 11.1398 8.2414 10.2211C8.2414 9.72889 8.37263 9.27772 8.60233 8.88397C9.90663 10.4918 11.8672 11.5418 14.0656 11.6566C14.0246 11.4597 14 11.2547 14 11.0496C14 9.58943 15.1812 8.39999 16.6496 8.39999C17.4125 8.39999 18.1015 8.71991 18.5855 9.23671C19.1843 9.12187 19.7586 8.90038 20.2672 8.59687C20.0703 9.21212 19.6519 9.72892 19.1023 10.057C19.6355 9.99962 20.1523 9.85194 20.6281 9.64688C20.2672 10.1719 19.816 10.6394 19.2992 11.0168Z" fill="white"/>
<defs>
<linearGradient id="paint0_linear_42_46" x1="22.3276" y1="0.480932" x2="2.53345" y2="11.8258" gradientUnits="userSpaceOnUse">
<stop stop-color="#E0AAEC"/>
<stop offset="1" stop-color="#94A0E3"/>
</linearGradient>
</defs>
</svg>
