<svg width="28" height="28" viewBox="0 0 28 28" fill="none" xmlns="http://www.w3.org/2000/svg">
<circle cx="14" cy="14" r="14" fill="url(#paint0_linear_44_11)"/>
<path d="M11.4504 18.9H9.27345V11.8897H11.4504V18.9ZM10.3607 10.9334C9.66463 10.9334 9.10001 10.3568 9.10001 9.66073C9.10001 9.32636 9.23283 9.00569 9.46927 8.76925C9.7057 8.53282 10.0264 8.39999 10.3607 8.39999C10.6951 8.39999 11.0158 8.53282 11.2522 8.76925C11.4886 9.00569 11.6215 9.32636 11.6215 9.66073C11.6215 10.3568 11.0566 10.9334 10.3607 10.9334ZM19.5979 18.9H17.4257V15.4874C17.4257 14.6741 17.4093 13.6311 16.2938 13.6311C15.162 13.6311 14.9886 14.5147 14.9886 15.4288V18.9H12.814V11.8897H14.9019V12.846H14.9323C15.223 12.2952 15.9329 11.7139 16.9921 11.7139C19.1952 11.7139 19.6002 13.1647 19.6002 15.0491V18.9H19.5979Z" fill="white"/>
<defs>
<linearGradient id="paint0_linear_44_11" x1="22.3276" y1="0.480932" x2="2.53345" y2="11.8258" gradientUnits="userSpaceOnUse">
<stop stop-color="#E0AAEC"/>
<stop offset="1" stop-color="#94A0E3"/>
</linearGradient>
</defs>
</svg>
