<svg id="Group_10" data-name="Group 10" xmlns="http://www.w3.org/2000/svg" xmlns:xlink="http://www.w3.org/1999/xlink" width="563" height="523" viewBox="0 0 563 523">
  <defs>
    <clipPath id="clip-path">
      <path id="Clip_2" data-name="Clip 2" d="M62.084,0a20.53,20.53,0,0,0-5.759.827h0L28.407,9h0C11.151,14.244,0,29.52,0,47.919H0c0,12.5,5.338,23.836,14.646,31.1h0c.1.08.209.163.321.246h0c.613.469,1.237.914,1.862,1.332h0l3.359,2.382a36.286,36.286,0,0,0,3.578,2.5h0c.243.154.489.3.736.444h0v72.881c0,.964.032,1.917.089,2.865h0v63.274h78.065V225H191V68.786c0-12.976-9.87-23.592-21.935-23.592H104.441c-.289-7.908-1.4-13.613-3.6-18.248h0a37.676,37.676,0,0,0-13.784-17h0l-4.88-3.533c-.248-.18-.5-.352-.752-.52h0A34.422,34.422,0,0,0,62.084,0Z" fill="none"/>
    </clipPath>
    <linearGradient id="linear-gradient" x2="1.02" y2="1.01" gradientUnits="objectBoundingBox">
      <stop offset="0" stop-color="#3023ae"/>
      <stop offset="1" stop-color="#c86dd7"/>
    </linearGradient>
    <clipPath id="clip-path-2">
      <path id="Clip_5" data-name="Clip 5" d="M12.441,7.539C3.772,9.99,0,16.4,0,22.622H0A13.526,13.526,0,0,0,5.6,33.793h0l.036.024c.332.24.674.467,1.026.677h0l6.274,4.136L14.4,36.571a28.436,28.436,0,0,0,10.1-2.263h0v91.428c0,6.048,2.7,10.987,7.245,13.607h0l5.491,3.726-.071-1.886a18.113,18.113,0,0,0,2.6.2h0c9.049,0,15.082-6.6,15.082-15.649h0V20.357c0-6.029-.564-10.18-1.506-11.5h0a13.5,13.5,0,0,0-1.338-2.623h0l2.521.391L48,2.231v0A14.227,14.227,0,0,0,40.155,0h0Z" transform="translate(0)" fill="none"/>
    </clipPath>
    <linearGradient id="linear-gradient-2" x1="0.5" x2="0.5" y2="1" gradientUnits="objectBoundingBox">
      <stop offset="0" stop-color="#008c36"/>
      <stop offset="1" stop-color="#063"/>
    </linearGradient>
    <clipPath id="clip-path-3">
      <path id="Clip_8" data-name="Clip 8" d="M12.439,7.54C3.771,9.99,0,16.4,0,22.623H0c0,8.291,6.595,13.95,14.325,13.95h0A28.318,28.318,0,0,0,24.5,34.309h0v91.428c0,9.051,6.033,15.649,15.27,15.649h0c9.049,0,15.08-6.6,15.08-15.649h0V20.358c0-6.03-.563-10.18-1.505-11.5h0A13.751,13.751,0,0,0,40.154,0h0Z" transform="translate(0)" fill="none"/>
    </clipPath>
    <linearGradient id="linear-gradient-3" x1="0.5" y1="1" x2="0.5" gradientUnits="objectBoundingBox">
      <stop offset="0" stop-color="#579a00"/>
      <stop offset="1" stop-color="#97c854"/>
    </linearGradient>
  </defs>
  <g id="Group_3" data-name="Group 3">
    <path id="Clip_2-2" data-name="Clip 2" d="M62.084,0a20.53,20.53,0,0,0-5.759.827h0L28.407,9h0C11.151,14.244,0,29.52,0,47.919H0c0,12.5,5.338,23.836,14.646,31.1h0c.1.08.209.163.321.246h0c.613.469,1.237.914,1.862,1.332h0l3.359,2.382a36.286,36.286,0,0,0,3.578,2.5h0c.243.154.489.3.736.444h0v72.881c0,.964.032,1.917.089,2.865h0v63.274h78.065V225H191V68.786c0-12.976-9.87-23.592-21.935-23.592H104.441c-.289-7.908-1.4-13.613-3.6-18.248h0a37.676,37.676,0,0,0-13.784-17h0l-4.88-3.533c-.248-.18-.5-.352-.752-.52h0A34.422,34.422,0,0,0,62.084,0Z" fill="none"/>
    <path id="Fill_1" data-name="Fill 1" d="M62.08,0a20.515,20.515,0,0,0-5.759.828L28.4,9C11.151,14.253,0,29.541,0,47.952,0,60.46,5.338,71.8,14.645,79.077c.1.08.209.164.321.246.613.469,1.237.915,1.862,1.333l3.359,2.384a36.285,36.285,0,0,0,3.578,2.5c.243.154.489.3.736.444v72.932c0,.964.032,1.919.089,2.867v320.19a41,41,0,0,0,40.971,41L102.65,523H523a40,40,0,0,0,40-40V85.226a40,40,0,0,0-40-40H104.435c-.289-7.914-1.4-13.623-3.6-18.261A37.7,37.7,0,0,0,87.052,9.956l-4.88-3.535c-.248-.18-.5-.352-.752-.521A34.4,34.4,0,0,0,62.08,0Z" fill="url(#linear-gradient)"/>
  </g>
  <g id="Group_6" data-name="Group 6" transform="translate(21.938 21.938)">
    <path id="Clip_5-2" data-name="Clip 5" d="M12.441,7.539C3.772,9.99,0,16.4,0,22.622H0A13.526,13.526,0,0,0,5.6,33.793h0l.036.024c.332.24.674.467,1.026.677h0l6.274,4.136L14.4,36.571a28.436,28.436,0,0,0,10.1-2.263h0v91.428c0,6.048,2.7,10.987,7.245,13.607h0l5.491,3.726-.071-1.886a18.113,18.113,0,0,0,2.6.2h0c9.049,0,15.082-6.6,15.082-15.649h0V20.357c0-6.029-.564-10.18-1.506-11.5h0a13.5,13.5,0,0,0-1.338-2.623h0l2.521.391L48,2.231v0A14.227,14.227,0,0,0,40.155,0h0Z" transform="translate(0)" fill="none"/>
    <g id="Group_6-2" data-name="Group 6" clip-path="url(#clip-path-2)">
      <path id="Fill_4" data-name="Fill 4" d="M12.441,7.539C3.772,9.99,0,16.4,0,22.622H0A13.526,13.526,0,0,0,5.6,33.793h0l.036.024c.332.24.674.467,1.026.677h0l6.274,4.136L14.4,36.571a28.436,28.436,0,0,0,10.1-2.263h0v91.428c0,6.048,2.7,10.987,7.245,13.607h0l5.491,3.726-.071-1.886a18.113,18.113,0,0,0,2.6.2h0c9.049,0,15.082-6.6,15.082-15.649h0V20.357c0-6.029-.564-10.18-1.506-11.5h0a13.5,13.5,0,0,0-1.338-2.623h0l2.521.391L48,2.231v0A14.227,14.227,0,0,0,40.155,0h0Z" transform="translate(0)" fill="url(#linear-gradient-2)"/>
    </g>
  </g>
  <g id="Group_9" data-name="Group 9" transform="translate(27.743 25.807)">
    <path id="Clip_8-2" data-name="Clip 8" d="M12.439,7.54C3.771,9.99,0,16.4,0,22.623H0c0,8.291,6.595,13.95,14.325,13.95h0A28.318,28.318,0,0,0,24.5,34.309h0v91.428c0,9.051,6.033,15.649,15.27,15.649h0c9.049,0,15.08-6.6,15.08-15.649h0V20.358c0-6.03-.563-10.18-1.505-11.5h0A13.751,13.751,0,0,0,40.154,0h0Z" transform="translate(0)" fill="none"/>
    <g id="Group_9-2" data-name="Group 9" clip-path="url(#clip-path-3)">
      <path id="Fill_7" data-name="Fill 7" d="M12.439,7.54C3.771,9.99,0,16.4,0,22.623H0c0,8.291,6.595,13.95,14.325,13.95h0A28.318,28.318,0,0,0,24.5,34.309h0v91.428c0,9.051,6.033,15.649,15.27,15.649h0c9.049,0,15.08-6.6,15.08-15.649h0V20.358c0-6.03-.563-10.18-1.505-11.5h0A13.751,13.751,0,0,0,40.154,0h0Z" transform="translate(0)" fill="url(#linear-gradient-3)"/>
    </g>
  </g>
</svg>
