<svg id="Group_10" data-name="Group 10" xmlns="http://www.w3.org/2000/svg" xmlns:xlink="http://www.w3.org/1999/xlink" width="563" height="523" viewBox="0 0 563 523">
  <defs>
    <clipPath id="clip-path">
      <path id="Clip_2" data-name="Clip 2" d="M66.239,0A68.44,68.44,0,0,0,21.116,17.114h0A63.261,63.261,0,0,0,0,64.922H0A40.866,40.866,0,0,0,14.335,95.976h0a22,22,0,0,0,2.345,1.789h0l.094.061c.43.3.858.583,1.288.854h0l4.04,2.678a35.671,35.671,0,0,0,5.353,3.173h0L9.937,128.253c-5.513,7.479-8.428,15.826-8.428,24.14h0c0,12.354,5.04,22.705,14.213,29.254h0c.3.219.6.431.915.636h0s5.454,3.616,5.507,3.65h0c.382.262.79.489,1.185.735h0v225.37H218.684l.323-344.74a21.877,21.877,0,0,0-21.939-21.685H161.123v0H133.877A61.418,61.418,0,0,0,107,13.478h0A68.354,68.354,0,0,0,66.239,0Z" fill="none"/>
    </clipPath>
    <linearGradient id="linear-gradient" x1="-0.636" y1="-0.452" x2="1.02" y2="1.01" gradientUnits="objectBoundingBox">
      <stop offset="0" stop-color="#3023ae"/>
      <stop offset="1" stop-color="#6db2d7"/>
    </linearGradient>
    <clipPath id="clip-path-2">
      <path id="Clip_5" data-name="Clip 5" d="M0,42.984c0,5.043,2.28,11.1,6.893,14.553h0l-.041,0,.336.221c.259.185.525.363.8.53h0l5.557,3.682.674-1.694c.407.031.818.054,1.243.054h0c9.993,0,14.888-9.993,14.888-16.588h0c0-9.428,6.6-13.95,13.39-13.95h0c6.592,0,13.384,4.147,13.384,11.307h0A26.916,26.916,0,0,1,51.464,57.31h0L5.658,119.332A19.383,19.383,0,0,0,1.51,130.455h0c0,5.316,1.739,9.184,5.293,11.587H6.791l.109.072.14.093h0l5.132,3.4.152-1.315a30.742,30.742,0,0,0,6.713.676h55.8c9.614,0,14.516-5.279,14.516-14.893h0a18.848,18.848,0,0,0-1.337-7.511h0l1.062.309,1.511-.726-6.329-4.2c-2.276-1.567-5.33-2.387-9.234-2.387H44.679C57.308,98.6,61.646,93.13,73.9,76.917h0c8.48-11.5,13.756-25.263,13.756-37.139h0C87.657,15.651,65.98,0,44.3,0h0C22.055,0,0,16.4,0,42.984" transform="translate(0)" fill="none"/>
    </clipPath>
    <linearGradient id="linear-gradient-2" x1="0.5" y1="1" x2="0.5" gradientUnits="objectBoundingBox">
      <stop offset="0" stop-color="#312683"/>
      <stop offset="1" stop-color="#1c70b8"/>
    </linearGradient>
    <clipPath id="clip-path-3">
      <path id="Clip_8" data-name="Clip 8" d="M0,42.984c0,7.537,5.085,17.342,15.459,17.342h0c9.994,0,14.888-9.992,14.888-16.588h0c0-9.427,6.6-13.95,13.39-13.95h0c6.593,0,13.383,4.149,13.383,11.308h0a26.9,26.9,0,0,1-5.658,16.213h0L5.656,119.333a19.374,19.374,0,0,0-4.147,11.122h0c0,9.612,5.653,14.514,17.528,14.514h55.8c9.613,0,14.514-5.279,14.514-14.894h0c0-9.425-4.522-14.513-14.326-14.513H44.678C57.307,98.6,61.645,93.13,73.9,76.917h0c8.48-11.5,13.755-25.264,13.755-37.139h0C87.656,15.651,65.98,0,44.3,0h0C22.055,0,0,16.4,0,42.984" transform="translate(0)" fill="none"/>
    </clipPath>
    <linearGradient id="linear-gradient-3" x1="0.5" y1="1" x2="0.5" gradientUnits="objectBoundingBox">
      <stop offset="0" stop-color="#0a77bc"/>
      <stop offset="1" stop-color="#36a7da"/>
    </linearGradient>
  </defs>
  <g id="Group_3" data-name="Group 3">
    <path id="Clip_2-2" data-name="Clip 2" d="M66.239,0A68.44,68.44,0,0,0,21.116,17.114h0A63.261,63.261,0,0,0,0,64.922H0A40.866,40.866,0,0,0,14.335,95.976h0a22,22,0,0,0,2.345,1.789h0l.094.061c.43.3.858.583,1.288.854h0l4.04,2.678a35.671,35.671,0,0,0,5.353,3.173h0L9.937,128.253c-5.513,7.479-8.428,15.826-8.428,24.14h0c0,12.354,5.04,22.705,14.213,29.254h0c.3.219.6.431.915.636h0s5.454,3.616,5.507,3.65h0c.382.262.79.489,1.185.735h0v225.37H218.684l.323-344.74a21.877,21.877,0,0,0-21.939-21.685H161.123v0H133.877A61.418,61.418,0,0,0,107,13.478h0A68.354,68.354,0,0,0,66.239,0Z" fill="none"/>
    <path id="Fill_1" data-name="Fill 1" d="M66.239,0A68.44,68.44,0,0,0,21.116,17.114,63.261,63.261,0,0,0,0,64.922,40.866,40.866,0,0,0,14.335,95.976a22,22,0,0,0,2.345,1.789l.094.061c.43.3.858.583,1.288.854l4.04,2.678a35.671,35.671,0,0,0,5.353,3.173L9.937,128.253c-5.513,7.479-8.428,15.826-8.428,24.14,0,12.354,5.04,22.705,14.213,29.254.3.219.6.431.915.636,0,0,5.454,3.616,5.507,3.65.382.262.79.489,1.185.735V483a40,40,0,0,0,40,40H523a40,40,0,0,0,40-40V66.519a20.907,20.907,0,0,0-20.906-20.907H521.188l-360.064,0-27.246,0A61.418,61.418,0,0,0,107,13.478,68.354,68.354,0,0,0,66.239,0Z" fill="url(#linear-gradient)"/>
  </g>
  <g id="Group_6" data-name="Group 6" transform="translate(21.938 21.938)">
    <path id="Clip_5-2" data-name="Clip 5" d="M0,42.984c0,5.043,2.28,11.1,6.893,14.553h0l-.041,0,.336.221c.259.185.525.363.8.53h0l5.557,3.682.674-1.694c.407.031.818.054,1.243.054h0c9.993,0,14.888-9.993,14.888-16.588h0c0-9.428,6.6-13.95,13.39-13.95h0c6.592,0,13.384,4.147,13.384,11.307h0A26.916,26.916,0,0,1,51.464,57.31h0L5.658,119.332A19.383,19.383,0,0,0,1.51,130.455h0c0,5.316,1.739,9.184,5.293,11.587H6.791l.109.072.14.093h0l5.132,3.4.152-1.315a30.742,30.742,0,0,0,6.713.676h55.8c9.614,0,14.516-5.279,14.516-14.893h0a18.848,18.848,0,0,0-1.337-7.511h0l1.062.309,1.511-.726-6.329-4.2c-2.276-1.567-5.33-2.387-9.234-2.387H44.679C57.308,98.6,61.646,93.13,73.9,76.917h0c8.48-11.5,13.756-25.263,13.756-37.139h0C87.657,15.651,65.98,0,44.3,0h0C22.055,0,0,16.4,0,42.984" transform="translate(0)" fill="none"/>
    <g id="Group_6-2" data-name="Group 6" clip-path="url(#clip-path-2)">
      <path id="Fill_4" data-name="Fill 4" d="M0,42.984c0,5.043,2.28,11.1,6.893,14.553h0l-.041,0,.336.221c.259.185.525.363.8.53h0l5.557,3.682.674-1.694c.407.031.818.054,1.243.054h0c9.993,0,14.888-9.993,14.888-16.588h0c0-9.428,6.6-13.95,13.39-13.95h0c6.592,0,13.384,4.147,13.384,11.307h0A26.916,26.916,0,0,1,51.464,57.31h0L5.658,119.332A19.383,19.383,0,0,0,1.51,130.455h0c0,5.316,1.739,9.184,5.293,11.587H6.791l.109.072.14.093h0l5.132,3.4.152-1.315a30.742,30.742,0,0,0,6.713.676h55.8c9.614,0,14.516-5.279,14.516-14.893h0a18.848,18.848,0,0,0-1.337-7.511h0l1.062.309,1.511-.726-6.329-4.2c-2.276-1.567-5.33-2.387-9.234-2.387H44.679C57.308,98.6,61.646,93.13,73.9,76.917h0c8.48-11.5,13.756-25.263,13.756-37.139h0C87.657,15.651,65.98,0,44.3,0h0C22.055,0,0,16.4,0,42.984" transform="translate(0)" fill="url(#linear-gradient-2)"/>
    </g>
  </g>
  <g id="Group_9" data-name="Group 9" transform="translate(27.743 25.808)">
    <path id="Clip_8-2" data-name="Clip 8" d="M0,42.984c0,7.537,5.085,17.342,15.459,17.342h0c9.994,0,14.888-9.992,14.888-16.588h0c0-9.427,6.6-13.95,13.39-13.95h0c6.593,0,13.383,4.149,13.383,11.308h0a26.9,26.9,0,0,1-5.658,16.213h0L5.656,119.333a19.374,19.374,0,0,0-4.147,11.122h0c0,9.612,5.653,14.514,17.528,14.514h55.8c9.613,0,14.514-5.279,14.514-14.894h0c0-9.425-4.522-14.513-14.326-14.513H44.678C57.307,98.6,61.645,93.13,73.9,76.917h0c8.48-11.5,13.755-25.264,13.755-37.139h0C87.656,15.651,65.98,0,44.3,0h0C22.055,0,0,16.4,0,42.984" transform="translate(0)" fill="none"/>
    <g id="Group_9-2" data-name="Group 9" clip-path="url(#clip-path-3)">
      <path id="Fill_7" data-name="Fill 7" d="M0,42.984c0,7.537,5.085,17.342,15.459,17.342h0c9.994,0,14.888-9.992,14.888-16.588h0c0-9.427,6.6-13.95,13.39-13.95h0c6.593,0,13.383,4.149,13.383,11.308h0a26.9,26.9,0,0,1-5.658,16.213h0L5.656,119.333a19.374,19.374,0,0,0-4.147,11.122h0c0,9.612,5.653,14.514,17.528,14.514h55.8c9.613,0,14.514-5.279,14.514-14.894h0c0-9.425-4.522-14.513-14.326-14.513H44.678C57.307,98.6,61.645,93.13,73.9,76.917h0c8.48-11.5,13.755-25.264,13.755-37.139h0C87.656,15.651,65.98,0,44.3,0h0C22.055,0,0,16.4,0,42.984" transform="translate(0)" fill="url(#linear-gradient-3)"/>
    </g>
  </g>
</svg>
