<svg id="Group_8" data-name="Group 8" xmlns="http://www.w3.org/2000/svg" xmlns:xlink="http://www.w3.org/1999/xlink" width="49" height="120" viewBox="0 0 49 120">
  <defs>
    <clipPath id="clip-path">
      <path id="Clip_5" data-name="Clip 5" d="M10.206,6.218C3.094,8.24,0,13.526,0,18.658H0a11.175,11.175,0,0,0,4.594,9.214h0l.03.02c.272.2.553.385.842.558h0l5.147,3.411,1.2-1.7A23.22,23.22,0,0,0,20.1,28.3h0V103.7c0,4.988,2.217,9.062,5.943,11.223h0L30.55,118l-.058-1.556a14.781,14.781,0,0,0,2.136.167h0C40.051,116.611,45,111.17,45,103.7h0V16.79c0-4.973-.463-8.4-1.235-9.485h0a11.159,11.159,0,0,0-1.1-2.163h0l2.068.322L39.378,1.84v0A11.624,11.624,0,0,0,32.94,0h0Z" fill="none"/>
    </clipPath>
    <linearGradient id="linear-gradient" x1="0.5" x2="0.5" y2="1" gradientUnits="objectBoundingBox">
      <stop offset="0" stop-color="#008c36"/>
      <stop offset="1" stop-color="#063"/>
    </linearGradient>
    <linearGradient id="linear-gradient-2" x1="0.5" y1="1" x2="0.5" gradientUnits="objectBoundingBox">
      <stop offset="0" stop-color="#579a00"/>
      <stop offset="1" stop-color="#97c854"/>
    </linearGradient>
  </defs>
  <g id="Group_6" data-name="Group 6">
    <path id="Clip_5-2" data-name="Clip 5" d="M10.206,6.218C3.094,8.24,0,13.526,0,18.658H0a11.175,11.175,0,0,0,4.594,9.214h0l.03.02c.272.2.553.385.842.558h0l5.147,3.411,1.2-1.7A23.22,23.22,0,0,0,20.1,28.3h0V103.7c0,4.988,2.217,9.062,5.943,11.223h0L30.55,118l-.058-1.556a14.781,14.781,0,0,0,2.136.167h0C40.051,116.611,45,111.17,45,103.7h0V16.79c0-4.973-.463-8.4-1.235-9.485h0a11.159,11.159,0,0,0-1.1-2.163h0l2.068.322L39.378,1.84v0A11.624,11.624,0,0,0,32.94,0h0Z" fill="none"/>
    <g id="Group_6-2" data-name="Group 6" clip-path="url(#clip-path)">
      <path id="Fill_4" data-name="Fill 4" d="M10.206,6.218C3.094,8.24,0,13.526,0,18.658H0a11.175,11.175,0,0,0,4.594,9.214h0l.03.02c.272.2.553.385.842.558h0l5.147,3.411,1.2-1.7A23.22,23.22,0,0,0,20.1,28.3h0V103.7c0,4.988,2.217,9.062,5.943,11.223h0L30.55,118l-.058-1.556a14.781,14.781,0,0,0,2.136.167h0C40.051,116.611,45,111.17,45,103.7h0V16.79c0-4.973-.463-8.4-1.235-9.485h0a11.159,11.159,0,0,0-1.1-2.163h0l2.068.322L39.378,1.84v0A11.624,11.624,0,0,0,32.94,0h0Z" fill="url(#linear-gradient)"/>
    </g>
  </g>
  <g id="Group_9" data-name="Group 9" transform="translate(4 3)">
    <path id="Clip_8" data-name="Clip 8" d="M10.2,6.24C3.094,8.267,0,13.572,0,18.721H0A11.436,11.436,0,0,0,11.751,30.265h0A23.061,23.061,0,0,0,20.1,28.391h0V104.05c0,7.49,4.949,12.95,12.527,12.95h0C40.053,117,45,111.54,45,104.05h0v-87.2c0-4.99-.462-8.424-1.235-9.517h0A11.285,11.285,0,0,0,32.94,0h0Z" fill="none"/>
    <g id="Group_6-3" data-name="Group 6">
      <path id="Fill_7" data-name="Fill 7" d="M10.2,6.24C3.094,8.267,0,13.572,0,18.721H0A11.436,11.436,0,0,0,11.751,30.265h0A23.061,23.061,0,0,0,20.1,28.391h0V104.05c0,7.49,4.949,12.95,12.527,12.95h0C40.053,117,45,111.54,45,104.05h0v-87.2c0-4.99-.462-8.424-1.235-9.517h0A11.285,11.285,0,0,0,32.94,0h0Z" fill="url(#linear-gradient-2)"/>
      <g id="Group_25" data-name="Group 25">
        <g id="Group_24" data-name="Group 24">
          <g id="Group_23" data-name="Group 23">
            <g id="Group_22" data-name="Group 22">
              <g id="Group_21" data-name="Group 21">
                <g id="Group_20" data-name="Group 20">
                  <g id="Group_19" data-name="Group 19">
                    <g id="Group_18" data-name="Group 18">
                      <g id="Group_17" data-name="Group 17">
                        <g id="Group_16" data-name="Group 16">
                          <g id="Group_15" data-name="Group 15">
                            <g id="Group_14" data-name="Group 14">
                              <g id="Group_13" data-name="Group 13">
                                <g id="Group_12" data-name="Group 12">
                                  <g id="Group_11" data-name="Group 11">
                                    <g id="Group_10" data-name="Group 10">
                                      <g id="Group_9-2" data-name="Group 9">
                                        <g id="Group_8-2" data-name="Group 8">
                                          <g id="Group_7" data-name="Group 7">
                                            <path id="Clip_8-2" data-name="Clip 8" d="M10.2,6.24C3.094,8.267,0,13.572,0,18.721H0A11.436,11.436,0,0,0,11.751,30.265h0A23.061,23.061,0,0,0,20.1,28.391h0V104.05c0,7.49,4.949,12.95,12.527,12.95h0C40.053,117,45,111.54,45,104.05h0v-87.2c0-4.99-.462-8.424-1.235-9.517h0A11.285,11.285,0,0,0,32.94,0h0Z" fill="none"/>
                                          </g>
                                        </g>
                                      </g>
                                    </g>
                                  </g>
                                </g>
                              </g>
                            </g>
                          </g>
                        </g>
                      </g>
                    </g>
                  </g>
                </g>
              </g>
            </g>
          </g>
        </g>
      </g>
    </g>
  </g>
</svg>
