<svg id="Group_10" data-name="Group 10" xmlns="http://www.w3.org/2000/svg" xmlns:xlink="http://www.w3.org/1999/xlink" width="345" height="585.925" viewBox="0 0 345 585.925">
  <defs>
    <clipPath id="clip-path">
      <path id="Clip_2" data-name="Clip 2" d="M66.239,0A68.44,68.44,0,0,0,21.116,17.114h0A63.261,63.261,0,0,0,0,64.922H0A40.866,40.866,0,0,0,14.335,95.976h0a22,22,0,0,0,2.345,1.789h0l.094.061c.43.3.858.583,1.288.854h0l4.04,2.678a35.671,35.671,0,0,0,5.353,3.173h0L9.937,128.253c-5.513,7.479-8.428,15.826-8.428,24.14h0c0,12.354,5.04,22.705,14.213,29.254h0c.3.219.6.431.915.636h0s5.454,3.616,5.507,3.65h0c.382.262.79.489,1.185.735h0v225.37H218.684l.323-344.74a21.877,21.877,0,0,0-21.939-21.685H161.123v0H133.877A61.418,61.418,0,0,0,107,13.478h0A68.354,68.354,0,0,0,66.239,0Z" fill="none"/>
    </clipPath>
    <linearGradient id="linear-gradient" x1="-0.636" y1="-0.452" x2="1.02" y2="1.01" gradientUnits="objectBoundingBox">
      <stop offset="0" stop-color="#3023ae"/>
      <stop offset="1" stop-color="#6db2d7"/>
    </linearGradient>
    <clipPath id="clip-path-2">
      <path id="Clip_5" data-name="Clip 5" d="M0,37.491c0,4.4,1.988,9.678,6.011,12.693h0l-.036,0,.293.193c.226.161.458.317.7.462h0l4.846,3.211L12.4,52.57c.355.027.713.047,1.084.047h0c8.714,0,12.983-8.716,12.983-14.468h0c0-8.223,5.757-12.167,11.677-12.167h0c5.748,0,11.671,3.617,11.671,9.862h0a23.48,23.48,0,0,1-4.934,14.142h0l-39.944,54.1a16.908,16.908,0,0,0-3.617,9.7h0c0,4.637,1.516,8.01,4.616,10.106h-.01l.1.063.122.081h0L10.614,127l.133-1.147a26.8,26.8,0,0,0,5.854.59H65.264c8.384,0,12.658-4.6,12.658-12.99h0a16.442,16.442,0,0,0-1.166-6.551h0l.926.27L79,106.538l-5.519-3.662a13.938,13.938,0,0,0-8.052-2.082H38.962C49.974,86,53.757,81.228,64.444,67.087h0c7.395-10.032,12-22.035,12-32.393h0C76.44,13.651,57.537,0,38.632,0h0C19.233,0,0,14.305,0,37.491" transform="translate(0.062 0.062)" fill="none"/>
    </clipPath>
    <linearGradient id="linear-gradient-2" x1="0.5" y1="1" x2="0.5" gradientUnits="objectBoundingBox">
      <stop offset="0" stop-color="#312683"/>
      <stop offset="1" stop-color="#1c70b8"/>
    </linearGradient>
    <clipPath id="clip-path-3">
      <path id="Clip_8" data-name="Clip 8" d="M0,37.656c0,6.6,4.439,15.192,13.495,15.192h0c8.724,0,13-8.753,13-14.532h0c0-8.259,5.764-12.221,11.688-12.221h0c5.755,0,11.682,3.635,11.682,9.906h0a23.624,23.624,0,0,1-4.939,14.2h0L4.937,104.542a17.01,17.01,0,0,0-3.62,9.743h0c0,8.421,4.935,12.715,15.3,12.715H65.33C73.722,127,78,122.375,78,113.952h0c0-8.257-3.947-12.714-12.505-12.714H39C50.025,86.374,53.811,81.586,64.51,67.383h0c7.4-10.076,12.007-22.133,12.007-32.536h0C76.517,13.711,57.6,0,38.67,0h0C19.252,0,0,14.367,0,37.656" transform="translate(-0.008 -0.318)" fill="none"/>
    </clipPath>
    <linearGradient id="linear-gradient-3" x1="0.5" y1="1" x2="0.5" gradientUnits="objectBoundingBox">
      <stop offset="0" stop-color="#0a77bc"/>
      <stop offset="1" stop-color="#36a7da"/>
    </linearGradient>
  </defs>
  <g id="Group_3" data-name="Group 3">
    <path id="Clip_2-2" data-name="Clip 2" d="M66.239,0A68.44,68.44,0,0,0,21.116,17.114h0A63.261,63.261,0,0,0,0,64.922H0A40.866,40.866,0,0,0,14.335,95.976h0a22,22,0,0,0,2.345,1.789h0l.094.061c.43.3.858.583,1.288.854h0l4.04,2.678a35.671,35.671,0,0,0,5.353,3.173h0L9.937,128.253c-5.513,7.479-8.428,15.826-8.428,24.14h0c0,12.354,5.04,22.705,14.213,29.254h0c.3.219.6.431.915.636h0s5.454,3.616,5.507,3.65h0c.382.262.79.489,1.185.735h0v225.37H218.684l.323-344.74a21.877,21.877,0,0,0-21.939-21.685H161.123v0H133.877A61.418,61.418,0,0,0,107,13.478h0A68.354,68.354,0,0,0,66.239,0Z" fill="none"/>
    <path id="Fill_1" data-name="Fill 1" d="M66.239,0A68.44,68.44,0,0,0,21.116,17.114,63.261,63.261,0,0,0,0,64.922,40.866,40.866,0,0,0,14.335,95.976a22,22,0,0,0,2.345,1.789l.094.061c.43.3.858.583,1.288.854l4.04,2.678a35.671,35.671,0,0,0,5.353,3.173L9.937,128.253c-5.513,7.479-8.428,15.826-8.428,24.14,0,12.354,5.04,22.705,14.213,29.254.3.219.6.431.915.636,0,0,5.454,3.616,5.507,3.65.382.262.79.489,1.185.735V545.924a40,40,0,0,0,40,40H305a40,40,0,0,0,40-40V66.519a20.907,20.907,0,0,0-20.906-20.907H303.188l-142.064,0-27.246,0A61.418,61.418,0,0,0,107,13.478,68.354,68.354,0,0,0,66.239,0Z" fill="url(#linear-gradient)"/>
  </g>
  <g id="Group_6" data-name="Group 6" transform="translate(21.938 21.938)">
    <path id="Clip_5-2" data-name="Clip 5" d="M0,37.491c0,4.4,1.988,9.678,6.011,12.693h0l-.036,0,.293.193c.226.161.458.317.7.462h0l4.846,3.211L12.4,52.57c.355.027.713.047,1.084.047h0c8.714,0,12.983-8.716,12.983-14.468h0c0-8.223,5.757-12.167,11.677-12.167h0c5.748,0,11.671,3.617,11.671,9.862h0a23.48,23.48,0,0,1-4.934,14.142h0l-39.944,54.1a16.908,16.908,0,0,0-3.617,9.7h0c0,4.637,1.516,8.01,4.616,10.106h-.01l.1.063.122.081h0L10.614,127l.133-1.147a26.8,26.8,0,0,0,5.854.59H65.264c8.384,0,12.658-4.6,12.658-12.99h0a16.442,16.442,0,0,0-1.166-6.551h0l.926.27L79,106.538l-5.519-3.662a13.938,13.938,0,0,0-8.052-2.082H38.962C49.974,86,53.757,81.228,64.444,67.087h0c7.395-10.032,12-22.035,12-32.393h0C76.44,13.651,57.537,0,38.632,0h0C19.233,0,0,14.305,0,37.491" transform="translate(0.062 0.062)" fill="none"/>
    <g id="Group_6-2" data-name="Group 6" clip-path="url(#clip-path-2)">
      <path id="Fill_4" data-name="Fill 4" d="M0,37.491c0,4.4,1.988,9.678,6.011,12.693h0l-.036,0,.293.193c.226.161.458.317.7.462h0l4.846,3.211L12.4,52.57c.355.027.713.047,1.084.047h0c8.714,0,12.983-8.716,12.983-14.468h0c0-8.223,5.757-12.167,11.677-12.167h0c5.748,0,11.671,3.617,11.671,9.862h0a23.48,23.48,0,0,1-4.934,14.142h0l-39.944,54.1a16.908,16.908,0,0,0-3.617,9.7h0c0,4.637,1.516,8.01,4.616,10.106h-.01l.1.063.122.081h0L10.614,127l.133-1.147a26.8,26.8,0,0,0,5.854.59H65.264c8.384,0,12.658-4.6,12.658-12.99h0a16.442,16.442,0,0,0-1.166-6.551h0l.926.27L79,106.538l-5.519-3.662a13.938,13.938,0,0,0-8.052-2.082H38.962C49.974,86,53.757,81.228,64.444,67.087h0c7.395-10.032,12-22.035,12-32.393h0C76.44,13.651,57.537,0,38.632,0h0C19.233,0,0,14.305,0,37.491" transform="translate(0.062 0.062)" fill="url(#linear-gradient-2)"/>
    </g>
  </g>
  <g id="Group_9" data-name="Group 9" transform="translate(27.008 25.318)">
    <path id="Clip_8-2" data-name="Clip 8" d="M0,37.656c0,6.6,4.439,15.192,13.495,15.192h0c8.724,0,13-8.753,13-14.532h0c0-8.259,5.764-12.221,11.688-12.221h0c5.755,0,11.682,3.635,11.682,9.906h0a23.624,23.624,0,0,1-4.939,14.2h0L4.937,104.542a17.01,17.01,0,0,0-3.62,9.743h0c0,8.421,4.935,12.715,15.3,12.715H65.33C73.722,127,78,122.375,78,113.952h0c0-8.257-3.947-12.714-12.505-12.714H39C50.025,86.374,53.811,81.586,64.51,67.383h0c7.4-10.076,12.007-22.133,12.007-32.536h0C76.517,13.711,57.6,0,38.67,0h0C19.252,0,0,14.367,0,37.656" transform="translate(-0.008 -0.318)" fill="none"/>
    <g id="Group_9-2" data-name="Group 9" clip-path="url(#clip-path-3)">
      <path id="Fill_7" data-name="Fill 7" d="M13.495,52.849c8.724,0,13-8.753,13-14.532,0-8.259,5.764-12.221,11.688-12.221,5.755,0,11.682,3.635,11.682,9.906a23.624,23.624,0,0,1-4.939,14.2L4.937,104.542a17.01,17.01,0,0,0-3.62,9.743c0,8.421,4.935,12.715,15.3,12.715H65.33C73.722,127,78,122.375,78,113.952c0-8.257-3.947-12.714-12.505-12.714H39C50.025,86.374,53.811,81.586,64.51,67.383c7.4-10.076,12.007-22.133,12.007-32.536C76.517,13.711,57.6,0,38.67,0,19.252,0,0,14.367,0,37.656,0,44.259,4.439,52.849,13.495,52.849Z" transform="translate(-0.008 -0.318)" fill="url(#linear-gradient-3)"/>
    </g>
  </g>
</svg>
