<svg width="150" height="40" viewBox="0 0 150 40" fill="none" xmlns="http://www.w3.org/2000/svg">
<path d="M50.9432 28.6418C50.2673 28.6785 49.5987 28.4863 49.0455 28.0963C48.8143 27.9249 48.6283 27.6998 48.5035 27.4405C48.3787 27.1811 48.3191 26.8953 48.3295 26.6077V16.0736C48.3241 16.029 48.3287 15.9837 48.3434 15.9412C48.3579 15.8987 48.382 15.8602 48.4139 15.8283C48.4457 15.7965 48.4842 15.7724 48.5267 15.7579C48.5692 15.7432 48.6145 15.7386 48.6591 15.744H50.5682C50.7841 15.744 50.8864 15.8577 50.8864 16.0736V25.7895C50.8864 26.2213 51.0795 26.4372 51.4773 26.4372C51.6459 26.4441 51.8145 26.4251 51.9773 26.3804C52.2045 26.3804 52.3295 26.4486 52.3409 26.6531L52.5114 28.0736C52.5195 28.1151 52.5187 28.1577 52.5091 28.1988C52.4994 28.2398 52.481 28.2785 52.4551 28.3118C52.4293 28.3452 52.3966 28.3727 52.3593 28.3923C52.3219 28.412 52.2808 28.4235 52.2386 28.4258C51.8205 28.564 51.3835 28.6369 50.9432 28.6418Z" fill="white"/>
<path d="M61.6818 27.4258C60.7226 28.2184 59.517 28.6519 58.2727 28.6519C57.0284 28.6519 55.823 28.2184 54.8636 27.4258C54.0206 26.5746 53.5475 25.425 53.5475 24.2269C53.5475 23.0288 54.0206 21.8792 54.8636 21.028C55.8248 20.2395 57.0295 19.8086 58.2727 19.8086C59.5159 19.8086 60.7207 20.2395 61.6818 21.028C62.5056 21.887 62.9655 23.0311 62.9655 24.2212C62.9655 25.4113 62.5056 26.5554 61.6818 27.4144V27.4258ZM56.6591 25.9258C57.1043 26.329 57.6834 26.5523 58.2841 26.5523C58.8848 26.5523 59.464 26.329 59.9091 25.9258C60.312 25.4626 60.5339 24.8693 60.5339 24.2553C60.5339 23.6414 60.312 23.0481 59.9091 22.5848C59.464 22.1817 58.8848 21.9583 58.2841 21.9583C57.6834 21.9583 57.1043 22.1817 56.6591 22.5848C56.2563 23.0481 56.0343 23.6414 56.0343 24.2553C56.0343 24.8693 56.2563 25.4626 56.6591 25.9258Z" fill="white"/>
<path d="M73.4773 20.0962C73.6932 20.0962 73.7955 20.2099 73.7955 20.4258V28.5735C73.8153 29.1235 73.7124 29.6709 73.4942 30.176C73.276 30.6812 72.9481 31.1314 72.5341 31.4939C71.6152 32.2775 70.4336 32.6835 69.2273 32.6303C68.1377 32.6686 67.0626 32.3711 66.1477 31.778C65.757 31.5216 65.4233 31.1874 65.1673 30.7964C64.9111 30.4054 64.7382 29.966 64.6591 29.5053C64.6591 29.278 64.6591 29.1758 64.9659 29.1758H66.875C66.956 29.1785 67.0347 29.2047 67.1011 29.2511C67.1677 29.2975 67.2194 29.362 67.25 29.4371C67.3739 29.7822 67.6207 30.0696 67.9432 30.2439C68.3363 30.4468 68.7737 30.5484 69.2159 30.5394C69.4827 30.5541 69.7498 30.5153 70.0015 30.4255C70.2532 30.3359 70.4844 30.1968 70.6818 30.0167C70.8622 29.8283 71.0024 29.6052 71.0942 29.3611C71.186 29.117 71.2274 28.8568 71.2159 28.5962V27.8803C70.5324 28.383 69.7005 28.643 68.8523 28.6189C68.2586 28.6405 67.6668 28.542 67.1122 28.3292C66.5576 28.1162 66.0518 27.7936 65.625 27.3803C64.8058 26.5328 64.3478 25.4001 64.3478 24.2212C64.3478 23.0425 64.8058 21.9097 65.625 21.0621C66.0539 20.6526 66.5603 20.333 67.1145 20.1222C67.6689 19.9114 68.2597 19.8137 68.8523 19.8349C69.725 19.8118 70.5793 20.0886 71.2727 20.6189V20.4371C71.2675 20.3936 71.272 20.3494 71.286 20.3078C71.3 20.2663 71.3231 20.2284 71.3535 20.1968C71.384 20.1652 71.4211 20.1409 71.4622 20.1254C71.5033 20.11 71.5473 20.1039 71.5909 20.1076L73.4773 20.0962ZM69.0682 26.5962C69.3609 26.6053 69.6522 26.55 69.9211 26.4341C70.1901 26.3183 70.4305 26.1447 70.625 25.9258C71.0028 25.4379 71.2078 24.8383 71.2078 24.2212C71.2078 23.6042 71.0028 23.0046 70.625 22.5167C70.4311 22.3008 70.1923 22.1297 69.9253 22.0159C69.6583 21.902 69.3697 21.848 69.0795 21.8576C68.7834 21.8483 68.4889 21.9034 68.2161 22.0192C67.9434 22.135 67.6991 22.3086 67.5 22.528C67.0815 22.9947 66.8614 23.6062 66.8864 24.2326C66.8659 24.8528 67.0811 25.4578 67.4886 25.9258C67.6882 26.1446 67.9326 26.3179 68.2052 26.4336C68.4778 26.5493 68.7722 26.6047 69.0682 26.5962Z" fill="white"/>
<path d="M83.6023 27.4258C82.6411 28.2143 81.4364 28.6452 80.1932 28.6452C78.95 28.6452 77.7452 28.2143 76.7841 27.4258C75.9596 26.5648 75.4994 25.4189 75.4994 24.2269C75.4994 23.035 75.9596 21.8889 76.7841 21.028C77.7461 20.2415 78.9506 19.8119 80.1932 19.8119C81.4358 19.8119 82.6402 20.2415 83.6023 21.028C84.426 21.887 84.8859 23.0311 84.8859 24.2212C84.8859 25.4113 84.426 26.5554 83.6023 27.4144V27.4258ZM78.5682 25.9258C78.786 26.133 79.0428 26.295 79.3237 26.4022C79.6047 26.5095 79.904 26.5601 80.2045 26.5508C80.5032 26.5585 80.8004 26.5073 81.0793 26.4001C81.3582 26.2928 81.6131 26.1317 81.8295 25.9258C82.2259 25.4594 82.4435 24.8673 82.4435 24.2553C82.4435 23.6433 82.2259 23.0512 81.8295 22.5848C81.6131 22.379 81.3582 22.2178 81.0793 22.1106C80.8004 22.0034 80.5032 21.9521 80.2045 21.9598C79.904 21.9506 79.6047 22.0011 79.3237 22.1084C79.0428 22.2156 78.786 22.3777 78.5682 22.5848C78.1719 23.0512 77.9543 23.6433 77.9543 24.2553C77.9543 24.8673 78.1719 25.4594 78.5682 25.9258Z" fill="white"/>
<path d="M88.9886 18.1644C88.6883 18.4273 88.3026 18.5722 87.9034 18.5722C87.5042 18.5722 87.1186 18.4273 86.8182 18.1644C86.682 18.0359 86.5735 17.8809 86.4993 17.7089C86.4252 17.537 86.3869 17.3517 86.3869 17.1644C86.3869 16.9771 86.4252 16.7919 86.4993 16.6198C86.5735 16.4479 86.682 16.2929 86.8182 16.1644C87.1217 15.908 87.5061 15.7675 87.9034 15.7675C88.3007 15.7675 88.6851 15.908 88.9886 16.1644C89.1249 16.2929 89.2334 16.4479 89.3075 16.6198C89.3817 16.7919 89.4199 16.9771 89.4199 17.1644C89.4199 17.3517 89.3817 17.537 89.3075 17.7089C89.2334 17.8809 89.1249 18.0359 88.9886 18.1644ZM89.2273 28.6417C88.5518 28.6748 87.8844 28.483 87.3295 28.0962C87.1019 27.9223 86.9191 27.6964 86.7966 27.4375C86.674 27.1785 86.6151 26.8939 86.625 26.6076V20.4258C86.6195 20.3812 86.6242 20.3359 86.6389 20.2934C86.6534 20.2509 86.6775 20.2123 86.7093 20.1805C86.7411 20.1487 86.7797 20.1246 86.8222 20.1101C86.8647 20.0954 86.91 20.0908 86.9545 20.0962H88.8636C89.0795 20.0962 89.1818 20.2098 89.1818 20.4258V25.7894C89.1818 26.2212 89.375 26.4371 89.7614 26.4371C89.9337 26.4434 90.106 26.4242 90.2727 26.3803C90.5 26.3803 90.625 26.4485 90.6364 26.653L90.8068 28.0735C90.815 28.115 90.8142 28.1576 90.8045 28.1987C90.7949 28.2397 90.7765 28.2784 90.7506 28.3117C90.7248 28.3451 90.692 28.3726 90.6548 28.3922C90.6174 28.4119 90.5762 28.4234 90.5341 28.4258C90.1123 28.5647 89.6715 28.6376 89.2273 28.6417Z" fill="white"/>
<path d="M97.8295 19.8235C98.4259 19.8 99.0208 19.8965 99.5791 20.1072C100.137 20.3182 100.648 20.639 101.08 21.0508C101.883 21.9133 102.33 23.0482 102.33 24.2269C102.33 25.4057 101.883 26.5407 101.08 27.403C100.65 27.8186 100.14 28.1426 99.5815 28.3554C99.0228 28.5684 98.4269 28.6658 97.8295 28.6417C96.9786 28.6607 96.1447 28.4013 95.4545 27.903V32.0053C95.4545 32.2212 95.3409 32.3235 95.125 32.3235H93.2159C93.1724 32.3317 93.1275 32.3291 93.0851 32.316C93.0428 32.3028 93.0043 32.2796 92.9729 32.2483C92.9417 32.2169 92.9184 32.1785 92.9053 32.1361C92.8922 32.0938 92.8897 32.049 92.8977 32.0053V22.6871C92.9111 22.596 92.903 22.503 92.8741 22.4155C92.8451 22.3282 92.796 22.2486 92.7309 22.1835C92.6658 22.1184 92.5864 22.0694 92.4989 22.0404C92.4115 22.0115 92.3184 22.0034 92.2273 22.0167H91.8523C91.6023 22.0167 91.4773 21.9258 91.4773 21.744V20.403C91.4714 20.3201 91.4941 20.2376 91.5417 20.1694C91.5892 20.1011 91.6587 20.0512 91.7386 20.028C92.1317 19.8852 92.5477 19.8159 92.9659 19.8235C93.3829 19.7866 93.8015 19.8751 94.1679 20.0775C94.5343 20.28 94.832 20.5872 95.0227 20.9599C95.3887 20.5896 95.8265 20.2979 96.3091 20.1025C96.7917 19.9071 97.3091 19.8121 97.8295 19.8235ZM96.0568 25.9258C96.2594 26.1376 96.5028 26.3061 96.7724 26.4212C97.0419 26.5363 97.3319 26.5957 97.625 26.5957C97.9181 26.5957 98.2082 26.5363 98.4776 26.4212C98.7472 26.3061 98.9906 26.1376 99.1932 25.9258C99.62 25.4497 99.8442 24.826 99.8182 24.1871C99.8479 23.5478 99.6232 22.9226 99.1932 22.4485C98.9906 22.2368 98.7472 22.0683 98.4776 21.9532C98.2082 21.8379 97.9181 21.7786 97.625 21.7786C97.3319 21.7786 97.0419 21.8379 96.7724 21.9532C96.5028 22.0683 96.2594 22.2368 96.0568 22.4485C95.6434 22.931 95.4282 23.5522 95.4545 24.1871C95.4315 24.8216 95.6464 25.4417 96.0568 25.9258Z" fill="white"/>
<path d="M107.693 28.6417C106.673 28.6837 105.662 28.4397 104.773 27.9372C104.416 27.7224 104.112 27.43 103.884 27.0818C103.656 26.7337 103.509 26.3385 103.455 25.9258C103.455 25.6985 103.534 25.5849 103.784 25.5849H105.455C105.534 25.5881 105.611 25.613 105.677 25.6572C105.743 25.7013 105.796 25.7628 105.83 25.8349C106.068 26.4485 106.693 26.7554 107.693 26.7554C108.042 26.7714 108.389 26.701 108.705 26.5508C108.813 26.5017 108.907 26.424 108.975 26.3259C109.043 26.2279 109.083 26.1131 109.091 25.994C109.091 25.6985 108.909 25.494 108.545 25.3576C108.114 25.2141 107.668 25.1188 107.216 25.0735C106.68 25.0129 106.149 24.918 105.625 24.7895C105.116 24.6742 104.653 24.409 104.295 24.0281C104.085 23.7692 103.93 23.4698 103.841 23.1486C103.751 22.8273 103.728 22.4909 103.774 22.1606C103.82 21.8301 103.933 21.5126 104.107 21.228C104.281 20.9432 104.511 20.6973 104.784 20.5054C105.603 19.9837 106.564 19.7295 107.534 19.7781C108.473 19.7464 109.402 19.9787 110.216 20.4485C110.544 20.6343 110.826 20.8908 111.042 21.1995C111.259 21.5081 111.403 21.861 111.466 22.2326C111.466 22.4599 111.364 22.5735 111.159 22.5735H109.477C109.406 22.5778 109.336 22.5605 109.275 22.524C109.214 22.4875 109.166 22.4334 109.136 22.369C109.024 22.0999 108.812 21.8842 108.545 21.7667C108.244 21.6092 107.908 21.5309 107.568 21.5395C107.235 21.5214 106.903 21.5879 106.602 21.7326C106.496 21.7735 106.405 21.8451 106.34 21.9383C106.276 22.0315 106.24 22.142 106.239 22.2554C106.246 22.4108 106.303 22.5598 106.401 22.6805C106.499 22.8012 106.633 22.8871 106.784 22.9258C107.22 23.0904 107.674 23.2047 108.136 23.2667C108.668 23.3367 109.195 23.4354 109.716 23.5622C110.225 23.6775 110.688 23.9426 111.045 24.3235C111.237 24.5334 111.384 24.779 111.48 25.0463C111.575 25.3134 111.617 25.597 111.602 25.8804C111.612 26.2732 111.52 26.6618 111.335 27.0084C111.149 27.3549 110.877 27.6475 110.545 27.8576C109.696 28.4028 108.702 28.6762 107.693 28.6417Z" fill="white"/>
<path d="M123.614 28.0735C123.62 28.1138 123.618 28.1551 123.609 28.1947C123.599 28.2345 123.582 28.2718 123.557 28.3046C123.533 28.3374 123.502 28.3651 123.467 28.3858C123.432 28.4066 123.393 28.4202 123.352 28.4257C122.938 28.5612 122.505 28.634 122.068 28.6416C121.636 28.6864 121.2 28.6189 120.802 28.4457C120.403 28.2726 120.057 27.9995 119.795 27.653C118.993 28.3431 117.955 28.6972 116.898 28.6416C116.407 28.6643 115.917 28.5839 115.459 28.4058C115.001 28.2278 114.585 27.9558 114.239 27.6076C113.894 27.2427 113.628 26.812 113.454 26.3414C113.28 25.8708 113.203 25.3701 113.227 24.8689V20.4257C113.227 20.2098 113.33 20.0962 113.545 20.0962H115.455C115.67 20.0962 115.773 20.2098 115.773 20.4257V24.528C115.752 25.0391 115.926 25.5389 116.261 25.9257C116.428 26.103 116.632 26.2423 116.857 26.3345C117.082 26.4266 117.325 26.4694 117.568 26.4598C117.817 26.4707 118.066 26.4322 118.3 26.3463C118.534 26.2605 118.749 26.1291 118.932 25.9598C119.105 25.7814 119.24 25.5694 119.327 25.3368C119.416 25.1041 119.455 24.856 119.443 24.6076V20.4257C119.443 20.2098 119.545 20.0962 119.761 20.0962H121.693C121.909 20.0962 122.011 20.2098 122.011 20.4257V25.778C122.011 26.2212 122.205 26.4371 122.58 26.4371C122.756 26.4439 122.932 26.4248 123.102 26.3803C123.145 26.3682 123.191 26.3661 123.234 26.374C123.278 26.3819 123.319 26.3996 123.356 26.4258C123.392 26.4521 123.422 26.4862 123.443 26.5255C123.464 26.5648 123.475 26.6085 123.477 26.653L123.614 28.0735Z" fill="white"/>
<path d="M141.67 28.0735C141.681 28.1142 141.682 28.1567 141.674 28.1979C141.665 28.2389 141.648 28.2778 141.623 28.3114C141.598 28.345 141.566 28.3728 141.528 28.3925C141.492 28.4124 141.451 28.4238 141.409 28.4258C140.986 28.5632 140.547 28.636 140.102 28.6417C139.426 28.6766 138.759 28.4847 138.205 28.0963C137.965 27.9299 137.77 27.7071 137.638 27.4474C137.505 27.1878 137.438 26.8992 137.443 26.6076V23.9372C137.467 23.4276 137.297 22.928 136.966 22.5395C136.807 22.3618 136.609 22.2218 136.39 22.1295C136.169 22.0372 135.932 21.9948 135.693 22.0054C135.478 21.9973 135.265 22.0381 135.067 22.1247C134.87 22.2113 134.697 22.3415 134.557 22.5054C134.257 22.8862 134.103 23.3621 134.125 23.8463V28.0395C134.125 28.2554 134.023 28.369 133.807 28.369H131.886C131.842 28.3746 131.797 28.3698 131.755 28.3553C131.711 28.3406 131.673 28.3165 131.641 28.2847C131.609 28.253 131.585 28.2143 131.57 28.1718C131.556 28.1293 131.551 28.0841 131.557 28.0395V23.9372C131.582 23.4332 131.424 22.9371 131.114 22.5395C130.975 22.3724 130.801 22.238 130.605 22.1457C130.409 22.0534 130.194 22.0055 129.977 22.0054C129.745 21.996 129.515 22.0357 129.299 22.122C129.083 22.2081 128.889 22.3388 128.727 22.5054C128.402 22.874 128.235 23.3556 128.261 23.8463V28.0395C128.267 28.0841 128.263 28.1293 128.248 28.1718C128.233 28.2143 128.209 28.253 128.177 28.2847C128.145 28.3165 128.107 28.3406 128.065 28.3553C128.022 28.3698 127.976 28.3746 127.932 28.369H126.08C125.864 28.369 125.761 28.2554 125.761 28.0395V22.6872C125.775 22.596 125.767 22.5031 125.738 22.4156C125.709 22.3282 125.66 22.2487 125.594 22.1835C125.53 22.1184 125.45 22.0695 125.363 22.0405C125.275 22.0115 125.182 22.0034 125.091 22.0167H124.716C124.466 22.0167 124.341 21.9258 124.341 21.744V20.4031C124.335 20.3201 124.358 20.2376 124.406 20.1695C124.453 20.1012 124.523 20.0513 124.602 20.0281C124.995 19.8853 125.411 19.8159 125.83 19.8235C126.231 19.7893 126.634 19.8693 126.992 20.0543C127.35 20.2393 127.648 20.5217 127.852 20.869C128.235 20.5057 128.69 20.2253 129.186 20.0454C129.683 19.8655 130.211 19.79 130.739 19.8235C131.251 19.7985 131.761 19.8946 132.23 20.1039C132.698 20.3132 133.109 20.6298 133.432 21.0281C133.808 20.6193 134.27 20.2993 134.785 20.0909C135.3 19.8826 135.855 19.7914 136.409 19.8235C136.905 19.8004 137.4 19.8803 137.864 20.0583C138.327 20.2363 138.749 20.5084 139.102 20.8576C139.448 21.2218 139.715 21.6524 139.889 22.1232C140.063 22.5939 140.14 23.0951 140.114 23.5963V25.7895C140.114 26.2213 140.307 26.4372 140.67 26.4372C140.847 26.4454 141.023 26.4263 141.193 26.3804C141.428 26.3804 141.553 26.4713 141.568 26.6531L141.67 28.0735Z" fill="white"/>
<path d="M8.42047 18.619C9.25884 15.2494 11.2005 12.257 13.9363 10.1185C16.6721 7.97999 20.0447 6.81824 23.5171 6.81824C26.9894 6.81824 30.3621 7.97999 33.0979 10.1185C35.8337 12.257 37.7752 15.2494 38.6136 18.619H37.25C34.9497 18.5852 32.6965 19.2727 30.8068 20.5849C30.6977 20.6639 30.5839 20.7361 30.4659 20.8009H30.3068C30.1889 20.7361 30.075 20.6639 29.9659 20.5849C28.0596 19.303 25.8143 18.6184 23.5171 18.6184C21.2198 18.6184 18.9746 19.303 17.0682 20.5849C16.9591 20.6639 16.8452 20.7361 16.7273 20.8009H16.5682C16.4502 20.7361 16.3364 20.6639 16.2273 20.5849C14.3376 19.2727 12.0844 18.5852 9.7841 18.619H8.42047ZM34.7955 25.744C35.4955 25.1989 36.3631 24.9137 37.25 24.9372H39.0796V21.2895H37.25C35.6877 21.2706 34.1613 21.7569 32.8977 22.6759C32.1867 23.2001 31.3266 23.4829 30.4432 23.4829C29.5598 23.4829 28.6997 23.2001 27.9886 22.6759C26.6931 21.774 25.1524 21.2905 23.5739 21.2905C21.9954 21.2905 20.4547 21.774 19.1591 22.6759C18.4481 23.2001 17.588 23.4829 16.7046 23.4829C15.8211 23.4829 14.961 23.2001 14.25 22.6759C12.9709 21.7451 11.4225 21.2582 9.84092 21.2895H7.95456V24.9372H9.7841C10.671 24.9137 11.5387 25.1989 12.2387 25.744C13.5318 26.6465 15.0708 27.1304 16.6477 27.1304C18.2247 27.1304 19.7637 26.6465 21.0568 25.744C21.7577 25.2006 22.6247 24.9156 23.5114 24.9372C24.3987 24.9118 25.2668 25.1972 25.9659 25.744C27.2615 26.646 28.8022 27.1294 30.3807 27.1294C31.9592 27.1294 33.4999 26.646 34.7955 25.744ZM34.7955 32.2668C35.4955 31.7216 36.3631 31.4364 37.25 31.4599H39.0796V27.8122H37.25C35.6877 27.7934 34.1613 28.2796 32.8977 29.1986C32.1867 29.7228 31.3266 30.0056 30.4432 30.0056C29.5598 30.0056 28.6997 29.7228 27.9886 29.1986C26.6931 28.2968 25.1524 27.8134 23.5739 27.8134C21.9954 27.8134 20.4547 28.2968 19.1591 29.1986C18.4481 29.7228 17.588 30.0056 16.7046 30.0056C15.8211 30.0056 14.961 29.7228 14.25 29.1986C12.9709 28.2679 11.4225 27.781 9.84092 27.8122H7.95456V31.4599H9.7841C10.671 31.4364 11.5387 31.7216 12.2387 32.2668C13.5318 33.1693 15.0708 33.6531 16.6477 33.6531C18.2247 33.6531 19.7637 33.1693 21.0568 32.2668C21.7577 31.7234 22.6247 31.4384 23.5114 31.4599C24.3987 31.4345 25.2668 31.7199 25.9659 32.2668C27.2615 33.1687 28.8022 33.6521 30.3807 33.6521C31.9592 33.6521 33.4999 33.1687 34.7955 32.2668Z" fill="white"/>
</svg>
