<svg width="150" height="40" viewBox="0 0 150 40" fill="none" xmlns="http://www.w3.org/2000/svg">
<path d="M43.7614 12.7954H47.4091V27.5681H43.7614V12.7954ZM48.8636 22.0113C48.8636 18.3522 51.1364 16.159 54.5455 16.159C57.9545 16.159 60.2273 18.3522 60.2273 22.0113C60.2273 25.6704 58.0341 27.8863 54.5455 27.8863C51.0568 27.8863 48.8636 25.75 48.8636 22.0113ZM56.6136 22.0113C56.6136 20 55.8295 18.8181 54.5795 18.8181C53.3295 18.8181 52.5568 19.9545 52.5568 22.0113C52.5568 24.0681 53.3295 25.1931 54.5795 25.1931C55.8295 25.1931 56.6364 24.0681 56.6364 22.0227L56.6136 22.0113ZM61.6818 28.3295H65.2045C65.3649 28.7087 65.645 29.0252 66.002 29.2303C66.3591 29.4355 66.7734 29.5183 67.1818 29.4659C68.5795 29.4659 69.3068 28.7159 69.3068 27.6022V25.5568H69.3182C69.0172 26.1937 68.5303 26.7245 67.9219 27.0795C67.3134 27.4345 66.6117 27.5969 65.9091 27.5454C63.2386 27.5454 61.4659 25.5113 61.4659 22.0113C61.4659 18.5113 63.1591 16.3295 66.0114 16.3295C66.7319 16.291 67.4468 16.4768 68.0573 16.8614C68.6678 17.2461 69.1441 17.8106 69.4205 18.4772H69.3182V16.4204H72.9318V27.4886C72.9318 30.159 70.5682 31.8295 67.0909 31.8295C63.9318 31.8181 61.9091 30.375 61.7045 28.3409L61.6818 28.3295ZM69.3182 22.0113C69.3182 20.2272 68.5 19.1022 67.2045 19.1022C65.9091 19.1022 65.1136 20.2386 65.1136 22.0113C65.1136 23.784 65.8977 24.8295 67.2045 24.8295C68.5114 24.8295 69.3182 23.8636 69.3182 22.0113ZM74.375 22.0113C74.375 18.3522 76.6477 16.159 80.0568 16.159C83.4659 16.159 85.7386 18.3522 85.7386 22.0113C85.7386 25.6704 83.5341 27.8863 80.0568 27.8863C76.5795 27.8863 74.3977 25.75 74.3977 22.0113H74.375ZM82.125 22.0113C82.125 20 81.3296 18.8181 80.0909 18.8181C78.8523 18.8181 78.0682 19.9545 78.0682 22.0113C78.0682 24.0681 78.8409 25.1931 80.0909 25.1931C81.3409 25.1931 82.1477 24.0681 82.1477 22.0227L82.125 22.0113ZM87.2159 13.7272C87.2 13.3556 87.2957 12.9878 87.4906 12.6711C87.6855 12.3543 87.9707 12.1031 88.3096 11.9498C88.6484 11.7964 89.0253 11.748 89.3919 11.8108C89.7585 11.8734 90.098 12.0443 90.3666 12.3014C90.6352 12.5587 90.8208 12.8903 90.8994 13.2538C90.978 13.6173 90.946 13.9961 90.8076 14.3412C90.6692 14.6864 90.4307 14.9823 90.1227 15.1909C89.8148 15.3994 89.4515 15.511 89.0795 15.5113C88.8419 15.5173 88.6053 15.4761 88.3838 15.3901C88.1622 15.3039 87.9598 15.1746 87.7885 15.0097C87.6173 14.8448 87.4805 14.6476 87.3861 14.4293C87.2917 14.2111 87.2416 13.9763 87.2386 13.7386L87.2159 13.7272ZM87.2159 16.409H90.9091V27.6136H87.2727L87.2159 16.409ZM104.193 22.0113C104.193 25.659 102.557 27.7727 99.7727 27.7727C99.06 27.8167 98.3509 27.6408 97.7412 27.2689C97.1316 26.897 96.6508 26.347 96.3636 25.6931H96.2955V31.2159H92.6477V16.4431H96.2727V18.4431H96.3409C96.6182 17.7764 97.0943 17.2113 97.7043 16.825C98.3144 16.4386 99.0288 16.2497 99.75 16.284C102.614 16.2613 104.261 18.3636 104.261 22.0227L104.193 22.0113ZM100.477 22.0113C100.477 20.2386 99.6477 19.0909 98.3636 19.0909C97.0795 19.0909 96.2727 20.2272 96.2614 22.0113C96.25 23.7954 97.0795 24.9204 98.3636 24.9204C99.6477 24.9204 100.545 23.8636 100.545 22.0227L100.477 22.0113ZM110.42 16.1477C113.477 16.1477 115.375 17.5909 115.398 19.909H112.068C112.068 19.1022 111.398 18.6022 110.398 18.6022C109.398 18.6022 108.92 18.9886 108.92 19.5681C108.92 20.1477 109.341 20.3295 110.182 20.5L112.523 20.9772C114.795 21.4545 115.705 22.3636 115.705 24.0568C115.705 26.3295 113.602 27.875 110.477 27.875C107.352 27.875 105.318 26.375 105.17 24.0909H108.705C108.807 24.9204 109.466 25.409 110.534 25.409C111.602 25.409 112.102 25.0681 112.102 24.4659C112.102 23.8636 111.761 23.7613 110.886 23.5795L108.773 23.1363C106.58 22.6704 105.432 21.5227 105.432 19.8068C105.5 17.5795 107.409 16.159 110.489 16.159L110.42 16.1477ZM127.92 27.6022H124.386V25.5H124.318C124.12 26.2012 123.69 26.814 123.097 27.2375C122.503 27.661 121.784 27.8697 121.057 27.8295C120.508 27.8473 119.96 27.7489 119.452 27.5405C118.944 27.3322 118.485 27.0187 118.107 26.6206C117.727 26.2225 117.437 25.7487 117.255 25.2305C117.072 24.7123 117 24.1612 117.045 23.6136V16.4204H120.693V22.8295C120.693 24.1477 121.386 24.8636 122.523 24.8636C122.79 24.8615 123.052 24.8023 123.294 24.6901C123.536 24.5777 123.751 24.4147 123.924 24.2122C124.098 24.0097 124.226 23.7723 124.3 23.5162C124.373 23.26 124.391 22.991 124.352 22.7272V16.4204H127.989L127.92 27.6022ZM129.682 16.409H133.227V18.5681H133.307C133.502 17.8764 133.923 17.2693 134.5 16.8415C135.078 16.4139 135.782 16.1898 136.5 16.2045C137.222 16.1418 137.941 16.3504 138.516 16.7896C139.092 17.2288 139.483 17.8671 139.614 18.5795H139.773C140 17.8633 140.457 17.2421 141.074 16.8127C141.69 16.3831 142.432 16.1694 143.182 16.2045C143.681 16.1855 144.178 16.2721 144.641 16.4586C145.105 16.645 145.523 16.9271 145.869 17.2865C146.216 17.6459 146.482 18.0744 146.651 18.5439C146.822 19.0135 146.89 19.5135 146.852 20.0113V27.6136H143.182V20.9431C143.182 19.8068 142.648 19.1704 141.614 19.1704C141.384 19.1667 141.157 19.2126 140.947 19.3048C140.736 19.3972 140.55 19.5339 140.398 19.7055C140.245 19.8772 140.132 20.0796 140.065 20.2992C139.999 20.5187 139.981 20.75 140.011 20.9772V27.6136H136.534V20.909C136.534 19.7727 135.977 19.1704 134.977 19.1704C134.745 19.1686 134.516 19.2163 134.305 19.3104C134.092 19.4046 133.903 19.5429 133.749 19.7162C133.595 19.8895 133.481 20.0937 133.413 20.3151C133.343 20.5365 133.323 20.7701 133.352 21V27.6136H129.705L129.682 16.409Z" fill="white"/>
<path d="M36.5455 13.7614C36.5456 11.4997 35.8626 9.29066 34.586 7.42368C33.3094 5.5567 31.4986 4.11881 29.391 3.29835C27.2834 2.47789 24.977 2.31311 22.7742 2.8256C20.5713 3.33809 18.5745 4.50395 17.0455 6.17048H2.86366V36.1023H32.8068V22.1137C33.982 21.0625 34.9225 19.7754 35.5667 18.3362C36.2109 16.897 36.5444 15.3382 36.5455 13.7614ZM30.7841 13.7614C30.7864 14.8451 30.4671 15.9053 29.8666 16.8075C29.266 17.7097 28.4115 18.4135 27.4108 18.8298C26.4101 19.2462 25.3085 19.3563 24.2452 19.1462C23.182 18.9362 22.205 18.4154 21.4378 17.6498C20.6707 16.8842 20.148 15.9083 19.9357 14.8455C19.7234 13.7828 19.8313 12.6808 20.2455 11.6793C20.6597 10.6778 21.3617 9.82172 22.2626 9.21936C23.1636 8.61701 24.2231 8.29549 25.3068 8.29548C26.7575 8.29548 28.149 8.87099 29.1758 9.89572C30.2027 10.9204 30.7811 12.3107 30.7841 13.7614ZM27.0455 30.3409H8.62503V11.9318H14.2386C14.1302 12.5358 14.0732 13.1479 14.0682 13.7614C14.0713 16.7412 15.2563 19.598 17.3633 21.705C19.4702 23.812 22.327 24.9971 25.3068 25C25.8894 24.997 26.4708 24.9475 27.0455 24.8523V30.3409Z" fill="white"/>
</svg>
