<svg width="150" height="39" viewBox="0 0 150 39" fill="none" xmlns="http://www.w3.org/2000/svg">
<path d="M27.8006 16.3058C30.6883 16.3058 31.338 17.5601 31.338 19.1245C31.338 20.7828 30.5521 21.9708 27.8126 21.9708C25.0905 21.9708 24.3037 20.8518 24.3037 19.1245C24.3037 17.4248 25.1613 16.3058 27.8006 16.3058Z" fill="white"/>
<path d="M57.9791 16.3058C60.8669 16.3058 61.5166 17.5601 61.5166 19.1245C61.5166 20.7828 60.7298 21.9708 57.9911 21.9708C55.2699 21.9708 54.4822 20.8518 54.4822 19.1245C54.4822 17.4248 55.3399 16.3058 57.9791 16.3058Z" fill="white"/>
<path fill-rule="evenodd" clip-rule="evenodd" d="M2.23322 35.4294V2.80396H148.164V35.4294H2.23322ZM71.7836 33.5889H146.324V4.64445H71.7836V33.5889ZM27.8144 24.7481C32.9411 24.7481 35.0963 22.5368 35.0963 19.0831C35.0963 15.5733 32.6687 13.4871 27.8144 13.4871C23.0347 13.4871 20.5187 15.7527 20.5187 19.0831C20.5187 22.8414 23.158 24.7481 27.8144 24.7481ZM9.99018 13.7355V24.5825H20.3374V21.6938H13.7337V13.7355H9.99018ZM46.6767 24.5825L46.5801 23.5316C45.3277 24.4253 43.8034 24.8554 42.2687 24.7481C39.9617 24.7481 38.0402 24.057 36.9626 22.6619C36.2518 21.6434 35.8929 20.4208 35.9402 19.1797C35.8998 17.9647 36.2711 16.7717 36.9939 15.7941C38.0844 14.4405 40.061 13.5423 43.004 13.5423C46.3896 13.5423 48.3791 14.5785 49.235 16.3196C49.4186 16.7297 49.5266 17.1695 49.5534 17.6181H45.9718C45.8815 17.3455 45.7136 17.1053 45.4887 16.927C44.7752 16.454 43.9232 16.2352 43.0702 16.3058C42.5699 16.2452 42.0623 16.2913 41.5812 16.4414C41.1001 16.5915 40.6563 16.842 40.2791 17.1763C39.8509 17.7625 39.6498 18.4842 39.7132 19.2073C39.6635 19.8972 39.8484 20.5837 40.2377 21.1555C40.6182 21.5101 41.0706 21.7786 41.5641 21.9431C42.0576 22.1076 42.5806 22.1642 43.0979 22.1089C44.1251 22.1924 45.145 21.8756 45.9442 21.2245C46.1158 21.0099 46.2341 20.7576 46.2893 20.4883H42.4353V18.1573H49.6472V24.5825H46.6767ZM57.9929 24.7481C63.1187 24.7481 65.2748 22.5368 65.2748 19.0831C65.2748 15.5733 62.8435 13.4871 57.9929 13.4871C53.2132 13.4871 50.6972 15.7527 50.6972 19.0831C50.6972 22.8414 53.3365 24.7481 57.9929 24.7481Z" fill="white"/>
<path d="M78.0893 24.5411V13.6942H80.758V24.5411H78.0893Z" fill="white"/>
<path d="M94.4623 20.0089C93.7859 20.8933 92.6218 21.2972 90.981 21.3074C90.635 21.3074 86.0475 21.2936 86.0475 21.2936V24.5411H83.4359V13.6942H90.9819C91.5867 13.6302 92.1985 13.6944 92.7764 13.8824C93.3552 14.0705 93.8871 14.3782 94.339 14.7856C94.9353 15.5625 95.2251 16.5311 95.1543 17.5077C95.215 18.3959 94.9712 19.2783 94.4623 20.0089ZM92.3209 16.4724C92.0448 16.0583 91.4494 15.8282 90.4417 15.8282H86.0337V19.1301H90.4132C91.4908 19.1301 92.0586 18.9092 92.3209 18.4804C92.4764 18.1783 92.5435 17.838 92.5141 17.4994C92.5371 17.1462 92.4709 16.7929 92.3209 16.4724Z" fill="white"/>
<path d="M102.85 24.7068C97.9307 24.7068 96.4251 22.8663 96.4251 21.0451H99.2162C99.2162 21.9433 100.446 22.6206 102.975 22.6206C105.489 22.6206 106.152 22.178 106.152 21.4592C106.152 20.6577 105.655 20.4092 103.32 20.147C102.86 20.1056 101.607 19.9537 101.137 19.8847C97.8239 19.5111 96.5485 18.5301 96.5485 16.7752C96.5485 14.9237 98.4147 13.5286 102.463 13.5286C106.857 13.5286 108.543 15.2559 108.543 17.0522H105.782C105.782 16.1402 104.746 15.6148 102.3 15.6148C99.785 15.6148 99.2466 15.9599 99.2466 16.6372C99.2466 17.3421 99.7988 17.5629 102.467 17.8804C103.076 17.9641 104.429 18.116 104.802 18.1565C107.622 18.4464 108.893 19.4687 108.893 21.2789C108.888 23.435 106.954 24.7068 102.85 24.7068Z" fill="white"/>
<path d="M116.752 24.693C113.146 24.693 110.797 23.2694 110.797 20.2758V13.6942H113.435V20.3126C113.435 21.681 114.555 22.5921 116.862 22.5921C118.948 22.5921 120.192 21.7362 120.192 20.3126V13.6942H122.804V20.5215C122.804 23.2427 120.62 24.693 116.752 24.693Z" fill="white"/>
<path d="M137.105 24.5411V17.3007L133.719 24.5411H131.15L127.861 17.3007V24.5411H125.376V13.6942H128.742L132.473 21.9571L136.286 13.6942H139.599V24.5411H137.105Z" fill="white"/>
</svg>
