<svg width="150" height="33" viewBox="0 0 150 33" fill="none" xmlns="http://www.w3.org/2000/svg">
<path d="M24.0203 14.3261C23.6143 14.7346 23.3033 15.2277 23.1096 15.7701C22.9159 16.3125 22.8442 16.891 22.8996 17.4643L22.8803 17.445C22.9373 18.1199 22.8463 18.799 22.6137 19.4351C22.3811 20.0711 22.0125 20.6487 21.5337 21.1276C21.0547 21.6065 20.4771 21.9751 19.841 22.2076C19.205 22.4402 18.5258 22.5313 17.8511 22.4743L17.8703 22.4936C17.0631 22.4185 16.2524 22.5941 15.5486 22.9966C14.8448 23.3992 14.2823 24.0089 13.9379 24.7428C13.5934 25.4768 13.4836 26.299 13.6235 27.0976C13.7636 27.8962 14.1464 28.6321 14.7199 29.2051C15.2935 29.7781 16.0297 30.1603 16.8284 30.2995C17.6271 30.4388 18.4492 30.3282 19.1828 29.9831C19.9165 29.6379 20.5257 29.075 20.9276 28.3708C21.3295 27.6667 21.5044 26.8558 21.4286 26.0486L21.4489 26.0679C21.3919 25.3931 21.4829 24.7139 21.7155 24.0778C21.9481 23.4418 22.3168 22.8642 22.7956 22.3853C23.2745 21.9065 23.8521 21.5378 24.4881 21.3053C25.1242 21.0727 25.8033 20.9816 26.4782 21.0386L26.4578 21.0193C27.1172 21.0786 27.781 20.9705 28.3875 20.705C28.9939 20.4395 29.5236 20.0251 29.9273 19.5005C30.3311 18.9758 30.5959 18.3576 30.6971 17.7033C30.7983 17.049 30.7327 16.3798 30.5065 15.7575C30.2802 15.1353 29.9005 14.5803 29.4026 14.144C28.9047 13.7076 28.3047 13.4039 27.6582 13.2612C27.0117 13.1185 26.3396 13.1412 25.7042 13.3273C25.0688 13.5135 24.4908 13.857 24.0236 14.3261H24.0203Z" fill="white"/>
<path d="M16.1164 19.9671L16.0961 19.9478C16.6696 20.0056 17.2488 19.9352 17.7919 19.7417C18.3349 19.5482 18.8282 19.2365 19.236 18.829C19.6437 18.4216 19.9559 17.9285 20.1497 17.3856C20.3436 16.8427 20.4145 16.2636 20.3571 15.69L20.3775 15.7092C20.3205 15.0344 20.4116 14.3553 20.6441 13.7192C20.8767 13.0832 21.2454 12.5056 21.7242 12.0266C22.2031 11.5478 22.7807 11.1791 23.4167 10.9466C24.0528 10.714 24.7319 10.623 25.4068 10.68L25.3864 10.6607C26.1937 10.7365 27.0047 10.5614 27.7089 10.1594C28.4131 9.75729 28.976 9.14779 29.321 8.414C29.666 7.68022 29.7763 6.85786 29.6368 6.0591C29.4973 5.26034 29.1148 4.52408 28.5414 3.95071C27.968 3.37736 27.2317 2.99482 26.433 2.8553C25.6342 2.71576 24.8119 2.82603 24.0781 3.17105C23.3443 3.51606 22.7349 4.07904 22.3327 4.78319C21.9306 5.48734 21.7556 6.29838 21.8314 7.10568L21.8121 7.08532C21.8692 7.7602 21.7784 8.43942 21.5459 9.07555C21.3134 9.71168 20.9447 10.2894 20.4659 10.7684C19.987 11.2472 19.4092 11.6159 18.7731 11.8484C18.1369 12.0809 17.4577 12.1717 16.7829 12.1146L16.8021 12.135C16.2286 12.0772 15.6493 12.1476 15.1063 12.3411C14.5633 12.5345 14.07 12.8463 13.6622 13.2537C13.2544 13.6612 12.9423 14.1543 12.7484 14.6972C12.5546 15.2401 12.4837 15.8192 12.5411 16.3928L12.5218 16.3735C12.5786 17.0483 12.4874 17.7274 12.2548 18.3634C12.0221 18.9993 11.6535 19.5769 11.1747 20.0557C10.6958 20.5345 10.1183 20.9031 9.48231 21.1358C8.84635 21.3684 8.16729 21.4596 7.4925 21.4028L7.51178 21.4221C6.70448 21.3462 5.89344 21.5213 5.18929 21.9234C4.48515 22.3255 3.92216 22.935 3.57715 23.6688C3.23213 24.4026 3.12186 25.2249 3.26139 26.0237C3.40092 26.8224 3.78347 27.5587 4.35682 28.132C4.93018 28.7055 5.66645 29.088 6.46521 29.2275C7.26397 29.367 8.08632 29.2567 8.82011 28.9117C9.55389 28.5667 10.1634 28.0038 10.5655 27.2996C10.9676 26.5954 11.1426 25.7844 11.0668 24.9771L11.0871 24.9964C11.0301 24.3215 11.1212 23.6424 11.3538 23.0063C11.5863 22.3703 11.955 21.7927 12.4338 21.3138C12.9127 20.835 13.4904 20.4663 14.1264 20.2338C14.7625 20.0012 15.4415 19.9101 16.1164 19.9671Z" fill="white"/>
<path d="M8.93571 17.8168C9.3418 17.4084 9.65271 16.9153 9.84625 16.3729C10.0398 15.8304 10.1112 15.2518 10.0553 14.6786L10.0757 14.6979C10.0187 14.0229 10.1097 13.3435 10.3424 12.7073C10.5752 12.0711 10.944 11.4934 11.4231 11.0144C11.9023 10.5355 12.4801 10.167 13.1164 9.93454C13.7527 9.70208 14.4321 9.61133 15.1071 9.66863L15.0868 9.64934C15.8938 9.72495 16.7045 9.54979 17.4083 9.14774C18.1122 8.74571 18.6748 8.13636 19.0197 7.4028C19.3645 6.66924 19.4746 5.84719 19.3351 5.04872C19.1956 4.25026 18.8131 3.51428 18.24 2.94113C17.6669 2.36798 16.9308 1.98556 16.1324 1.84604C15.334 1.70651 14.5118 1.81667 13.7783 2.16148C13.0447 2.50629 12.4354 3.06897 12.0334 3.77279C11.6313 4.47661 11.4561 5.28732 11.5318 6.09434L11.5125 6.07506C11.5695 6.7499 11.4784 7.42904 11.2458 8.06509C11.0132 8.70113 10.6447 9.27875 10.1658 9.75763C9.68689 10.2365 9.10927 10.6051 8.47322 10.8377C7.83718 11.0703 7.15804 11.1613 6.48321 11.1043L6.50249 11.1236C5.8431 11.0645 5.17945 11.1728 4.57304 11.4384C3.96663 11.704 3.43708 12.1184 3.03346 12.6432C2.62984 13.1679 2.36522 13.7861 2.2641 14.4403C2.16299 15.0947 2.22866 15.7639 2.45502 16.3859C2.68138 17.0081 3.06113 17.563 3.55905 17.9993C4.05698 18.4357 4.65698 18.7392 5.30346 18.8819C5.94992 19.0246 6.62196 19.0017 7.25728 18.8156C7.89259 18.6294 8.47063 18.2859 8.93784 17.8168H8.93571Z" fill="white"/>
<path d="M42.1254 7.13037H45.3075V22.6157H42.1254V7.13037Z" fill="white"/>
<path d="M47.1096 17.3132C47.1053 16.2004 47.4312 15.1112 48.0462 14.1838C48.6612 13.2564 49.5376 12.5323 50.5645 12.1034C51.5913 11.6744 52.7223 11.5599 53.8143 11.7743C54.9063 11.9886 55.9101 12.5222 56.6986 13.3076C57.4871 14.0928 58.0247 15.0945 58.2435 16.1856C58.4623 17.2768 58.3523 18.4083 57.9274 19.4369C57.5026 20.4654 56.7821 21.3448 55.8571 21.9634C54.932 22.5822 53.8443 22.9125 52.7314 22.9125C51.9928 22.921 51.2598 22.782 50.5754 22.5039C49.891 22.2257 49.2689 21.814 48.7455 21.2927C48.222 20.7714 47.8078 20.1509 47.527 19.4676C47.246 18.7844 47.1042 18.052 47.1096 17.3132ZM55.1711 17.3132C55.1578 16.8335 55.0034 16.3684 54.7273 15.976C54.4511 15.5836 54.0654 15.2813 53.6184 15.1069C53.1713 14.9325 52.6828 14.8937 52.2138 14.9955C51.7449 15.0973 51.3163 15.3349 50.9817 15.679C50.6472 16.0229 50.4213 16.4579 50.3327 16.9295C50.244 17.4011 50.2962 17.8884 50.4829 18.3304C50.6697 18.7725 50.9825 19.1496 51.3824 19.4148C51.7824 19.68 52.2516 19.8214 52.7314 19.8214C53.06 19.8302 53.3869 19.7708 53.6915 19.6469C53.996 19.523 54.2716 19.3375 54.5008 19.1019C54.73 18.8661 54.9079 18.5855 55.0232 18.2777C55.1386 17.9699 55.189 17.6415 55.1711 17.3132Z" fill="white"/>
<path d="M71.0357 12.0097V22.0811C71.0357 25.6447 68.2564 27.1511 65.4354 27.1511C64.4422 27.2255 63.4476 27.0248 62.5607 26.5712C61.674 26.1176 60.9293 25.4286 60.4082 24.5797L63.1232 23.01C63.3422 23.4525 63.6912 23.8176 64.1233 24.0564C64.5555 24.2951 65.0503 24.3962 65.5414 24.3461C65.8554 24.3896 66.1751 24.362 66.4769 24.2652C66.7786 24.1685 67.0548 24.0051 67.285 23.7872C67.5151 23.5693 67.6933 23.3025 67.8064 23.0064C67.9195 22.7103 67.9645 22.3927 67.9382 22.0768V21.1072C67.5656 21.5631 67.0914 21.9253 66.5534 22.1648C66.0154 22.4042 65.4289 22.5143 64.8407 22.4861C63.4412 22.442 62.1138 21.855 61.1395 20.8494C60.1651 19.8438 59.6203 18.4986 59.6203 17.0984C59.6203 15.6983 60.1651 14.353 61.1395 13.3475C62.1138 12.3418 63.4412 11.7549 64.8407 11.7107C65.4289 11.6826 66.0154 11.7926 66.5534 12.0321C67.0914 12.2715 67.5656 12.6338 67.9382 13.0897V12.0075L71.0357 12.0097ZM67.9393 17.1C67.9607 16.5872 67.8281 16.0797 67.5586 15.6429C67.2892 15.206 66.8951 14.8598 66.4272 14.6488C65.9593 14.4377 65.439 14.3716 64.9332 14.4588C64.4274 14.5461 63.9593 14.7826 63.589 15.1382C63.2188 15.4937 62.9635 15.9519 62.8558 16.4537C62.7482 16.9556 62.7932 17.4782 62.9852 17.9543C63.1771 18.4303 63.5071 18.8381 63.9327 19.125C64.3583 19.412 64.86 19.565 65.3732 19.5643C65.7076 19.5877 66.0431 19.5407 66.3582 19.4265C66.6733 19.3123 66.961 19.1333 67.2027 18.9012C67.4444 18.669 67.6349 18.3888 67.7618 18.0786C67.8886 17.7684 67.9492 17.4351 67.9393 17.1Z" fill="white"/>
<path d="M72.8379 17.3132C72.8335 16.2004 73.1593 15.1112 73.7744 14.1838C74.3894 13.2564 75.2658 12.5323 76.2927 12.1034C77.3195 11.6744 78.4505 11.5599 79.5425 11.7743C80.6345 11.9886 81.6384 12.5222 82.4268 13.3076C83.2153 14.0928 83.7529 15.0945 83.9717 16.1856C84.1905 17.2768 84.0805 18.4083 83.6556 19.4369C83.2308 20.4654 82.5103 21.3448 81.5853 21.9634C80.6603 22.5822 79.5725 22.9125 78.4596 22.9125C77.721 22.921 76.9879 22.782 76.3036 22.5039C75.6192 22.2257 74.9971 21.814 74.4737 21.2927C73.9502 20.7714 73.536 20.1509 73.2552 19.4676C72.9742 18.7844 72.8324 18.052 72.8379 17.3132ZM80.8993 17.3132C80.886 16.8335 80.7316 16.3684 80.4555 15.976C80.1793 15.5836 79.7936 15.2813 79.3466 15.1069C78.8995 14.9325 78.4109 14.8937 77.942 14.9955C77.4731 15.0973 77.0445 15.3349 76.7099 15.679C76.3754 16.0229 76.1495 16.4579 76.0608 16.9295C75.9721 17.4011 76.0244 17.8884 76.2111 18.3304C76.3979 18.7725 76.7108 19.1496 77.1106 19.4148C77.5106 19.68 77.9797 19.8214 78.4596 19.8214C78.7882 19.8302 79.1151 19.7708 79.4196 19.6469C79.7243 19.523 79.9998 19.3375 80.229 19.1019C80.4582 18.8661 80.6361 18.5855 80.7514 18.2777C80.8668 17.9699 80.9172 17.6415 80.8993 17.3132Z" fill="white"/>
<path d="M85.5654 9.1671C85.5654 8.78948 85.6773 8.42034 85.8871 8.10636C86.0969 7.79238 86.3952 7.54766 86.744 7.40315C87.0929 7.25864 87.4768 7.22083 87.8472 7.2945C88.2175 7.36817 88.5578 7.55001 88.8248 7.81704C89.0918 8.08405 89.2736 8.42425 89.3473 8.79462C89.4209 9.16498 89.3831 9.54887 89.2387 9.89775C89.0941 10.2466 88.8494 10.5448 88.5354 10.7546C88.2214 10.9644 87.8523 11.0764 87.4747 11.0764C86.9699 11.0714 86.4871 10.8686 86.1301 10.5116C85.7732 10.1546 85.5704 9.67191 85.5654 9.1671ZM85.8868 12.0096H89.07V22.6167H85.8825L85.8868 12.0096Z" fill="white"/>
<path d="M102.81 17.3132C102.847 18.0142 102.745 18.7156 102.509 19.377C102.274 20.0384 101.911 20.6467 101.439 21.1671C100.968 21.6874 100.399 22.1095 99.7639 22.4091C99.129 22.7086 98.4412 22.8797 97.74 22.9125C97.1503 22.9446 96.5609 22.8452 96.0143 22.6214C95.4678 22.3974 94.9781 22.0548 94.5803 21.6182V26.8585H91.3982V12.0096H94.5803V13.006C94.9782 12.5697 95.4681 12.2273 96.0146 12.0037C96.5611 11.78 97.1504 11.6807 97.74 11.7128C98.4413 11.7455 99.1293 11.9165 99.7643 12.2161C100.399 12.5156 100.969 12.9378 101.44 13.4583C101.911 13.9788 102.275 14.5874 102.51 15.249C102.745 15.9105 102.847 16.612 102.81 17.3132ZM99.6278 17.3132C99.6154 16.8168 99.4568 16.3351 99.1719 15.9282C98.8871 15.5215 98.4886 15.2078 98.0264 15.0265C97.5641 14.8451 97.0586 14.8041 96.5731 14.9087C96.0876 15.0131 95.6438 15.2585 95.2971 15.614C94.9504 15.9696 94.7163 16.4194 94.6241 16.9074C94.5318 17.3954 94.5855 17.8996 94.7784 18.3572C94.9713 18.8148 95.295 19.2052 95.7088 19.4798C96.1226 19.7543 96.608 19.9008 97.1046 19.9007C97.4455 19.9159 97.7858 19.8588 98.1032 19.7332C98.4204 19.6077 98.7077 19.4165 98.9459 19.1722C99.1842 18.9278 99.368 18.636 99.4856 18.3156C99.6031 17.9952 99.6516 17.6536 99.6278 17.3132Z" fill="white"/>
<path d="M112.63 19.4336C112.63 21.8733 110.509 22.9125 108.219 22.9125C107.293 22.9963 106.364 22.8007 105.551 22.3506C104.737 21.9006 104.078 21.217 103.658 20.3882L106.414 18.8186C106.526 19.2016 106.765 19.535 107.093 19.7626C107.42 19.9904 107.817 20.099 108.214 20.07C108.977 20.07 109.36 19.8365 109.36 19.4132C109.36 18.2454 104.141 18.8615 104.141 15.1918C104.141 12.8786 106.093 11.7129 108.299 11.7129C109.128 11.6866 109.949 11.8834 110.676 12.2825C111.404 12.6817 112.011 13.2686 112.435 13.9822L109.72 15.4458C109.601 15.1679 109.403 14.9313 109.15 14.7653C108.897 14.5993 108.601 14.5115 108.299 14.5125C107.747 14.5125 107.408 14.7268 107.408 15.1061C107.412 16.3158 112.63 15.509 112.63 19.4336Z" fill="white"/>
<path d="M124.254 12.0096V22.6168H121.071V21.6193C120.704 22.0594 120.238 22.4062 119.711 22.6313C119.184 22.8562 118.611 22.953 118.039 22.9136C115.896 22.9136 114.075 21.3868 114.075 18.5207V12.0096H117.257V18.0546C117.23 18.3073 117.259 18.5627 117.342 18.803C117.423 19.0435 117.557 19.2631 117.733 19.4466C117.909 19.6302 118.122 19.7732 118.359 19.8659C118.594 19.9586 118.848 19.9986 119.102 19.9832C120.269 19.9832 121.075 19.305 121.075 17.7986V12.0129L124.254 12.0096Z" fill="white"/>
<path d="M142.5 16.1036V22.6158H139.318V16.379C139.318 15.3183 138.809 14.64 137.791 14.64C136.73 14.64 136.136 15.3825 136.136 16.634V22.6158H132.955V16.379C132.955 15.3183 132.446 14.64 131.427 14.64C130.366 14.64 129.773 15.3825 129.773 16.634V22.6158H126.59V12.0086H129.773V12.9836C130.103 12.5511 130.535 12.208 131.031 11.9859C131.529 11.7637 132.073 11.6695 132.615 11.7118C133.159 11.6852 133.701 11.8001 134.189 12.0454C134.675 12.2905 135.09 12.6578 135.393 13.1111C135.746 12.6368 136.213 12.2597 136.751 12.0149C137.289 11.7702 137.88 11.666 138.469 11.7118C140.905 11.7129 142.5 13.4518 142.5 16.1036Z" fill="white"/>
<path d="M145.191 11.9443C146.495 11.9443 147.553 10.887 147.553 9.58286C147.553 8.27868 146.495 7.22144 145.191 7.22144C143.888 7.22144 142.83 8.27868 142.83 9.58286C142.83 10.887 143.888 11.9443 145.191 11.9443Z" fill="white"/>
</svg>
