<svg xmlns="http://www.w3.org/2000/svg" xmlns:xlink="http://www.w3.org/1999/xlink" width="157" height="268.007" viewBox="0 0 157 268.007">
  <defs>
    <linearGradient id="linear-gradient" x1="-0.636" y1="-0.452" x2="1.02" y2="1.01" gradientUnits="objectBoundingBox">
      <stop offset="0" stop-color="#3023ae"/>
      <stop offset="1" stop-color="#6db2d7"/>
    </linearGradient>
  </defs>
  <g id="Group_5" data-name="Group 5" transform="translate(36 36)">
    <path id="Rectangle" d="M0,1A1,1,0,0,1,1,0H84a1,1,0,0,1,1,1V194.943a1,1,0,0,1-1.618.786L43.571,164.452,1.6,195.806A1,1,0,0,1,0,195Z" fill="url(#linear-gradient)"/>
    <path id="Rectangle-2" data-name="Rectangle" d="M0,1A1,1,0,0,1,1,0H84a1,1,0,0,1,1,1V194.943a1,1,0,0,1-1.618.786L43.571,164.452,1.6,195.806A1,1,0,0,1,0,195Z" opacity="0.322" fill="url(#linear-gradient)"/>
    <path id="Rectangle-3" data-name="Rectangle" d="M0,1A1,1,0,0,1,1,0H84a1,1,0,0,1,1,1V194.943a1,1,0,0,1-1.618.786L43.571,164.452,1.6,195.806A1,1,0,0,1,0,195Z" opacity="0.32" fill="url(#linear-gradient)"/>
  </g>
</svg>
