<svg width="49" height="49" viewBox="0 0 49 49" fill="none" xmlns="http://www.w3.org/2000/svg">
<path d="M0.482422 24.5C0.482422 11.2452 11.2276 0.5 24.4824 0.5C37.7373 0.5 48.4824 11.2452 48.4824 24.5C48.4824 37.7548 37.7373 48.5 24.4824 48.5C11.2276 48.5 0.482422 37.7548 0.482422 24.5Z" fill="#55ACEE"/>
<path d="M23.7636 20.0074L23.814 20.8379L22.9746 20.7362C19.9193 20.3464 17.2501 19.0244 14.9838 16.8042L13.8758 15.7026L13.5904 16.5161C12.986 18.3295 13.3722 20.2447 14.6312 21.5327C15.3027 22.2445 15.1516 22.3462 13.9933 21.9225C13.5904 21.7869 13.2379 21.6853 13.2043 21.7361C13.0868 21.8547 13.4897 23.397 13.8086 24.0071C14.2451 24.8545 15.1348 25.685 16.1085 26.1765L16.9311 26.5663L15.9574 26.5832C15.0173 26.5832 14.9838 26.6002 15.0845 26.9561C15.4202 28.0577 16.7464 29.2271 18.2237 29.7356L19.2646 30.0915L18.358 30.6338C17.015 31.4134 15.437 31.8541 13.859 31.888C13.1036 31.9049 12.4824 31.9727 12.4824 32.0236C12.4824 32.193 14.5305 33.1421 15.7224 33.515C19.2981 34.6166 23.5454 34.1421 26.735 32.2608C29.0013 30.9219 31.2676 28.2611 32.3253 25.685C32.896 24.3122 33.4668 21.8039 33.4668 20.6006C33.4668 19.821 33.5172 19.7193 34.4573 18.7871C35.0113 18.2448 35.5317 17.6516 35.6324 17.4821C35.8003 17.1601 35.7835 17.1601 34.9273 17.4482C33.5004 17.9567 33.2989 17.8889 34.004 17.1262C34.5244 16.5839 35.1456 15.6009 35.1456 15.3128C35.1456 15.262 34.8937 15.3467 34.6084 15.4992C34.3062 15.6687 33.6347 15.9229 33.1311 16.0755L32.2245 16.3636L31.4019 15.8043C30.9487 15.4992 30.3108 15.1603 29.975 15.0586C29.1188 14.8213 27.8094 14.8552 27.0372 15.1264C24.9387 15.889 23.6125 17.855 23.7636 20.0074Z" fill="white"/>
</svg>
